<?xml version="1.0" encoding="utf-8"?>
<!-- Generator: Adobe Illustrator 19.2.0, SVG Export Plug-In . SVG Version: 6.00 Build 0)  -->
<!DOCTYPE svg PUBLIC "-//W3C//DTD SVG 1.1//EN" "http://www.w3.org/Graphics/SVG/1.1/DTD/svg11.dtd">
<svg version="1.1" id="Layer_1" xmlns="http://www.w3.org/2000/svg" xmlns:xlink="http://www.w3.org/1999/xlink" x="0px" y="0px"
	 viewBox="0 0 148 216.9" style="enable-background:new 0 0 148 216.9;" xml:space="preserve">
<style type="text/css">
	.st0{fill:#FFFFFF;}
</style>
<g>
	<path class="st0" d="M47.2,22.7C47.2,22.7,47.2,22.7,47.2,22.7C47.2,22.7,47.2,22.7,47.2,22.7c0,0,0.1,0.1,0.1,0.1
		C47.3,22.8,47.3,22.8,47.2,22.7z"/>
	<path class="st0" d="M46.8,18.8c-0.1,0.1-0.1,0.1-0.2,0.2c0-0.1,0-0.1,0.1-0.2c0,0.1,0,0.1-0.1,0.2C46.7,19,46.7,18.9,46.8,18.8z"
		/>
	<path class="st0" d="M47,18.6L47,18.6c0,0,0.1-0.1,0.1-0.1C47.1,18.6,47,18.6,47,18.6z"/>
	<path class="st0" d="M47.2,18.9C47.2,18.9,47.3,18.9,47.2,18.9c0.1-0.1,0.1-0.1,0.1-0.1C47.3,18.8,47.3,18.8,47.2,18.9
		C47.3,18.9,47.2,18.9,47.2,18.9z"/>
	<path class="st0" d="M46.7,22.6L46.7,22.6c0-0.1,0-0.3-0.1-0.5l0,0C46.7,22.3,46.7,22.4,46.7,22.6z"/>
	<path class="st0" d="M45.8,21.3c0.1,0,0.1,0,0.2,0c0.1,0,0.1,0,0.2,0c-0.1,0-0.1,0-0.2,0C45.9,21.3,45.8,21.3,45.8,21.3
		c-0.5,0-1,0.7-1,1.3l0,0C44.8,22,45.2,21.3,45.8,21.3z"/>
	<path class="st0" d="M45.8,13c0.1,0,0.1,0,0.2,0c0.2,0,0.6,0.1,0.9,0.5c0,0,0.1,0.1,0.1,0.1c0-0.1,0-0.1-0.1-0.1
		C46.5,13.1,46.2,13,46,13C45.9,13,45.8,13,45.8,13c-0.5,0-1,0.7-1,1.3l0,0C44.8,13.7,45.2,13,45.8,13z"/>
	<path class="st0" d="M44.8,18.3c0,0,0,0.1,0,0.1l0,0C44.8,18.4,44.8,18.3,44.8,18.3L44.8,18.3z"/>
	<path class="st0" d="M46.7,18.4L46.7,18.4c0,0,0-0.1,0-0.1l0,0C46.7,18.3,46.7,18.4,46.7,18.4z"/>
	<path class="st0" d="M35.3,28.8L35.3,28.8c0-0.1,0-0.3-0.1-0.5l0,0C35.3,28.5,35.3,28.7,35.3,28.8z"/>
	<path class="st0" d="M34.3,27.5c0.1,0,0.1,0,0.2,0c0.2,0,0.6,0.1,0.9,0.5c0.1,0.1,0.1,0.2,0,0.3l0,0c0.1-0.1,0.1-0.2,0-0.3
		c-0.3-0.4-0.7-0.5-0.9-0.5C34.4,27.5,34.4,27.5,34.3,27.5c-0.1,0-0.2,0-0.2,0.1h0C34.1,27.6,34.2,27.5,34.3,27.5z"/>
	<path class="st0" d="M45.8,25.5c0.1,0,0.1,0,0.2,0c0.2,0,0.6,0.1,0.9,0.5c0,0,0.1,0.1,0.1,0.1c0-0.1,0-0.1-0.1-0.1
		c-0.3-0.4-0.7-0.5-0.9-0.5C45.9,25.5,45.8,25.5,45.8,25.5c-0.5,0-1,0.7-1,1.3C44.8,26.2,45.2,25.5,45.8,25.5z"/>
	<path class="st0" d="M35.8,29C35.8,29,35.8,29,35.8,29C35.8,29,35.8,29,35.8,29c0,0,0.1,0.1,0.1,0.1C35.8,29,35.8,29,35.8,29z"/>
	<path class="st0" d="M47.2,27.2C47.2,27.2,47.3,27.2,47.2,27.2c0.1-0.1,0.1-0.1,0.1-0.1C47.3,27.1,47.3,27.1,47.2,27.2
		C47.3,27.2,47.2,27.2,47.2,27.2z"/>
	<path class="st0" d="M46.8,27.2c-0.1,0.1-0.1,0.1-0.2,0.2c0-0.1,0-0.1,0.1-0.2c0,0.1,0,0.1-0.1,0.2C46.7,27.3,46.7,27.2,46.8,27.2z
		"/>
	<path class="st0" d="M46.7,26.8c0-0.1,0-0.3-0.1-0.5l0,0C46.7,26.4,46.7,26.6,46.7,26.8z"/>
	<path class="st0" d="M47,26.9c0,0,0.1-0.1,0.1-0.1C47.1,26.9,47,26.9,47,26.9z"/>
	<path class="st0" d="M46.9,21.8c0,0,0.1,0.1,0.1,0.1C46.9,21.9,46.9,21.9,46.9,21.8z"/>
	<path class="st0" d="M46.6,23.2c0-0.1,0-0.1,0.1-0.2C46.7,23,46.6,23.1,46.6,23.2L46.6,23.2z"/>
	<path class="st0" d="M47.3,23C47.3,23,47.3,23,47.3,23C47.3,23,47.3,23,47.3,23L47.3,23z"/>
	<path class="st0" d="M47.2,26.9C47.2,26.9,47.2,26.9,47.2,26.9C47.2,26.9,47.2,26.9,47.2,26.9c0,0,0.1,0.1,0.1,0.1
		C47.3,27,47.3,26.9,47.2,26.9z"/>
	<path class="st0" d="M46.2,21.4c0.2,0,0.5,0.2,0.7,0.4C46.6,21.5,46.4,21.4,46.2,21.4z"/>
	<path class="st0" d="M47.1,22.7c-0.1,0-0.1,0-0.1,0.1c-0.1,0.1-0.2,0.3-0.3,0.3c0.1-0.1,0.2-0.2,0.3-0.3
		C47,22.7,47.1,22.7,47.1,22.7z"/>
	<path class="st0" d="M50.9,29c0,0,0.1-0.1,0.1-0.1C51,28.9,50.9,28.9,50.9,29c-0.1,0.2-0.2,0.3-0.4,0.4c0,0,0,0,0,0
		C50.6,29.3,50.8,29.2,50.9,29z"/>
	<path class="st0" d="M50.6,28.8L50.6,28.8c0-0.1,0-0.3-0.1-0.5l0,0C50.6,28.5,50.6,28.7,50.6,28.8z"/>
	<path class="st0" d="M62.9,38.7C62.9,38.7,62.9,38.7,62.9,38.7C62.9,38.7,62.9,38.7,62.9,38.7c-0.1-0.6-0.3-1.3-0.4-2v0
		C62.6,37.4,62.7,38.1,62.9,38.7z"/>
	<path class="st0" d="M49.7,27.5c0.1,0,0.1,0,0.2,0c0.2,0,0.6,0.1,0.9,0.5c0,0,0.1,0.1,0.1,0.1c0-0.1,0-0.1-0.1-0.1
		c-0.3-0.4-0.7-0.5-0.9-0.5C49.8,27.5,49.7,27.5,49.7,27.5c-0.5,0-1,0.7-1,1.3l0,0C48.7,28.2,49.1,27.5,49.7,27.5z"/>
	<path class="st0" d="M50.3,24.6c0,0.1,0,0.3-0.1,0.4C50.3,24.9,50.3,24.8,50.3,24.6c0-0.1,0-0.3-0.1-0.5l0,0
		C50.3,24.3,50.3,24.5,50.3,24.6z"/>
	<path class="st0" d="M49.4,23.4c0.1,0,0.1,0,0.2,0c0.2,0,0.6,0.1,0.9,0.5l0,0c-0.3-0.4-0.7-0.5-0.9-0.5
		C49.5,23.4,49.4,23.4,49.4,23.4c-0.5,0-1,0.7-1,1.3l0,0C48.4,24.1,48.8,23.4,49.4,23.4z"/>
	<path class="st0" d="M54.5,22.8C54.5,22.8,54.5,22.8,54.5,22.8C54.5,22.8,54.5,22.8,54.5,22.8z"/>
	<polygon class="st0" points="54.4,22.7 54.4,22.7 54.4,22.7 	"/>
	<path class="st0" d="M54.1,22.1C54.1,22.1,54.1,22,54.1,22.1C54.1,22,54.1,22.1,54.1,22.1L54.1,22.1z"/>
	<path class="st0" d="M64.7,40c0,0.1,0,0.3,0.1,0.4C64.7,40.3,64.7,40.2,64.7,40z"/>
	<path class="st0" d="M51.1,29C51.1,29,51.1,29,51.1,29C51.1,29,51.1,29,51.1,29c0,0,0.1,0.1,0.1,0.1C51.2,29,51.2,29,51.1,29z"/>
	<path class="st0" d="M46.2,41.6c-5.3,0-9.3,0.2-12.3,0.4l0,0C36.9,41.7,40.9,41.6,46.2,41.6c5.3,0,9.3,0.2,12.3,0.4l0,0
		C55.6,41.7,51.6,41.6,46.2,41.6z"/>
	<path class="st0" d="M50.6,24.8c0,0,0.1-0.1,0.1-0.1C50.7,24.8,50.6,24.8,50.6,24.8c-0.1,0.2-0.2,0.3-0.3,0.4c0,0,0,0,0,0
		C50.3,25.1,50.4,25,50.6,24.8z"/>
	<path class="st0" d="M50.3,20.7c0,0,0.1-0.1,0.1-0.1C50.3,20.6,50.3,20.6,50.3,20.7c-0.1,0.2-0.2,0.3-0.4,0.4c0,0,0-0.1,0-0.1
		c0,0,0,0.1,0,0.1C50,21,50.1,20.8,50.3,20.7z"/>
	<path class="st0" d="M50.6,20.9c0-0.1,0-0.2,0-0.2c0,0,0,0,0,0h0C50.6,20.7,50.6,20.8,50.6,20.9z"/>
	<path class="st0" d="M47.2,18.6C47.2,18.6,47.2,18.6,47.2,18.6C47.2,18.6,47.2,18.6,47.2,18.6c0,0,0.1,0.1,0.1,0.1
		C47.3,18.7,47.3,18.6,47.2,18.6z"/>
	<path class="st0" d="M48.3,19.8C48.3,19.8,48.3,19.8,48.3,19.8C48.3,19.8,48.3,19.8,48.3,19.8z"/>
	<path class="st0" d="M50,20.5L50,20.5c0-0.1,0-0.3-0.1-0.5l0,0C50,20.2,50,20.3,50,20.5z"/>
	<path class="st0" d="M49.1,19.2c0.1,0,0.1,0,0.2,0c0.2,0,0.6,0.1,0.9,0.5c0,0,0.1,0.1,0.1,0.1c0-0.1,0-0.1-0.1-0.1
		c-0.3-0.4-0.7-0.5-0.9-0.5C49.2,19.2,49.1,19.2,49.1,19.2c-0.3,0-0.5,0.2-0.7,0.4C48.6,19.4,48.8,19.2,49.1,19.2z"/>
	<path class="st0" d="M50.9,24.9c0-0.1,0-0.1-0.1-0.1c0,0,0,0,0,0c0,0,0,0,0,0C50.9,24.8,50.9,24.9,50.9,24.9z"/>
	<path class="st0" d="M50.5,23.9c0,0,0,0.1,0,0.1C50.5,24,50.5,23.9,50.5,23.9z"/>
	<path class="st0" d="M62.5,42.3c1.6,0.2,2.3,0.3,2.3,0.3l0,0C64.8,42.6,64.1,42.4,62.5,42.3L62.5,42.3z"/>
	<path class="st0" d="M40,22.7C40,22.7,40,22.7,40,22.7C40,22.7,40,22.7,40,22.7c0,0,0.1,0.1,0.1,0.1C40.1,22.8,40.1,22.8,40,22.7z"
		/>
	<path class="st0" d="M39.2,26.8c0,0.2,0,0.3-0.1,0.5C39.2,27.1,39.2,26.9,39.2,26.8c0-0.1,0-0.3-0.1-0.5l0,0
		C39.2,26.4,39.2,26.6,39.2,26.8z"/>
	<path class="st0" d="M39.5,26.9c0,0,0.1-0.1,0.1-0.1C39.6,26.9,39.5,26.9,39.5,26.9z"/>
	<path class="st0" d="M39.5,26.9c-0.1,0.2-0.2,0.3-0.4,0.4l0,0C39.2,27.2,39.3,27.1,39.5,26.9z"/>
	<path class="st0" d="M36.8,16.6L36.8,16.6c0-0.1,0-0.1-0.1-0.1c0,0,0,0,0,0c0,0,0,0,0,0C36.7,16.5,36.8,16.6,36.8,16.6z"/>
	<path class="st0" d="M36.1,24.8C36.1,24.8,36.1,24.8,36.1,24.8C36.1,24.8,36.1,24.8,36.1,24.8c0,0,0.1,0.1,0.1,0.1
		C36.1,24.9,36.1,24.8,36.1,24.8z"/>
	<path class="st0" d="M38.3,25.5c0.1,0,0.1,0,0.2,0c0.2,0,0.6,0.1,0.9,0.5c0,0,0.1,0.1,0.1,0.1c0-0.1,0-0.1-0.1-0.1
		c-0.3-0.4-0.7-0.5-0.9-0.5C38.4,25.5,38.3,25.5,38.3,25.5c-0.5,0-1,0.7-1,1.3C37.3,26.2,37.7,25.5,38.3,25.5z"/>
	<path class="st0" d="M36.4,16.5c0,0,0.1-0.1,0.1-0.1C36.5,16.5,36.5,16.5,36.4,16.5c-0.1,0.2-0.2,0.3-0.4,0.4c0,0,0-0.1,0-0.1
		c0,0,0,0.1,0,0.1C36.2,16.8,36.3,16.7,36.4,16.5z"/>
	<path class="st0" d="M39.5,22.6C39.5,22.6,39.5,22.5,39.5,22.6C39.5,22.5,39.5,22.6,39.5,22.6L39.5,22.6z"/>
	<path class="st0" d="M39.7,26.9C39.7,26.9,39.7,26.9,39.7,26.9C39.7,26.9,39.7,26.9,39.7,26.9c0,0,0.1,0.1,0.1,0.1
		C39.8,27,39.8,26.9,39.7,26.9z"/>
	<path class="st0" d="M39.4,27.6c0.1-0.1,0.2-0.2,0.4-0.4c0,0,0-0.1,0-0.1c0,0,0,0.1,0,0.1C39.6,27.3,39.5,27.5,39.4,27.6z"/>
	<path class="st0" d="M35.6,25.6c0.2-0.1,0.3-0.3,0.5-0.5c0,0,0-0.1,0-0.1c0,0,0,0.1,0,0.1C35.9,25.3,35.8,25.5,35.6,25.6z"/>
	<path class="st0" d="M40.4,14.5c0,0,0.1-0.1,0.1-0.1C40.5,14.4,40.4,14.4,40.4,14.5c-0.1,0.2-0.2,0.3-0.4,0.4c0,0,0,0,0,0
		C40.1,14.7,40.3,14.6,40.4,14.5z"/>
	<path class="st0" d="M40.2,14.3L40.2,14.3c0-0.1,0-0.3-0.1-0.5l0,0C40.1,14,40.2,14.1,40.2,14.3z"/>
	<path class="st0" d="M39.8,22.8c0,0,0.1-0.1,0.1-0.1C39.9,22.7,39.8,22.7,39.8,22.8c-0.1,0.2-0.2,0.3-0.3,0.4l0,0
		C39.5,23.1,39.7,22.9,39.8,22.8z"/>
	<path class="st0" d="M36.2,16c0-0.1,0-0.1,0-0.2l0,0C36.1,15.9,36.1,16,36.2,16z"/>
	<path class="st0" d="M46.7,14.3L46.7,14.3c0-0.1,0-0.3-0.1-0.5l0,0C46.7,14,46.7,14.1,46.7,14.3z"/>
	<path class="st0" d="M39.2,13c0.1,0,0.1,0,0.2,0c0.2,0,0.6,0.1,0.9,0.5c0.1,0.1,0.1,0.2,0,0.3l0,0c0.1-0.1,0.1-0.2,0-0.3
		c-0.3-0.4-0.7-0.5-0.9-0.5C39.3,13,39.2,13,39.2,13c-0.5,0-1,0.7-1,1.3c0,0.2,0.1,0.5,0.2,0.7c-0.1-0.2-0.2-0.5-0.2-0.7
		C38.2,13.7,38.7,13,39.2,13z"/>
	<path class="st0" d="M40.7,14.6c0-0.1,0-0.1-0.1-0.1c0,0,0,0,0,0c0,0,0,0,0,0C40.7,14.5,40.7,14.5,40.7,14.6z"/>
	<path class="st0" d="M37,11.4c-0.3-0.4-0.7-0.5-0.9-0.5c-0.1,0-0.1,0-0.2,0c-0.4,0-0.7,0.4-0.9,0.8c0.2-0.4,0.5-0.8,0.9-0.8
		c0.1,0,0.1,0,0.2,0C36.3,10.9,36.7,11,37,11.4c0,0,0.1,0.1,0.1,0.1C37,11.5,37,11.4,37,11.4z"/>
	<path class="st0" d="M35.2,15c0.1,0,0.1,0,0.2,0c0.2,0,0.6,0.1,0.9,0.5c0,0,0.1,0.1,0.1,0.1c0-0.1,0-0.1-0.1-0.1
		c-0.3-0.4-0.7-0.5-0.9-0.5C35.4,15.1,35.3,15,35.2,15c-0.5,0-1,0.7-1,1.3l0,0C34.3,15.8,34.7,15,35.2,15z"/>
	<path class="st0" d="M37.4,12.6c0-0.1,0-0.2,0-0.2c0,0,0,0,0,0c0,0,0,0,0,0C37.4,12.4,37.4,12.5,37.4,12.6z"/>
	<path class="st0" d="M37.1,12.4c0,0,0.1-0.1,0.1-0.1C37.2,12.3,37.1,12.3,37.1,12.4c-0.1,0.2-0.2,0.3-0.4,0.4l0,0
		C36.9,12.6,37,12.5,37.1,12.4z"/>
	<path class="st0" d="M36.9,12.2L36.9,12.2c0-0.1,0-0.3-0.1-0.5l0,0C36.8,11.9,36.9,12,36.9,12.2z"/>
	<path class="st0" d="M42.2,23.4c0.1,0,0.1,0,0.2,0c0.2,0,0.6,0.1,0.9,0.5c0,0,0.1,0.1,0.1,0.1c0-0.1,0-0.1-0.1-0.1
		c-0.3-0.4-0.7-0.5-0.9-0.5C42.3,23.4,42.2,23.4,42.2,23.4c-0.5,0-1,0.7-1,1.3l0,0C41.2,24.1,41.6,23.4,42.2,23.4z"/>
	<path class="st0" d="M43.1,25.7c0.2-0.1,0.4-0.3,0.6-0.6C43.5,25.4,43.3,25.5,43.1,25.7z"/>
	<path class="st0" d="M43.6,24.8C43.6,24.8,43.6,24.8,43.6,24.8c0.1,0.1,0.1,0.2,0,0.3C43.7,25,43.7,24.9,43.6,24.8
		C43.6,24.8,43.6,24.8,43.6,24.8z"/>
	<path class="st0" d="M35.8,24.9c-0.1,0.2-0.2,0.3-0.3,0.4c0,0,0,0,0,0C35.6,25.1,35.7,25,35.8,24.9z"/>
	<path class="st0" d="M43.1,24.6L43.1,24.6c0-0.1,0-0.3-0.1-0.5l0,0C43.1,24.3,43.1,24.5,43.1,24.6z"/>
	<path class="st0" d="M43.9,20.6c0,0,0.1,0.1,0.1,0.1C44,20.7,44,20.7,43.9,20.6z"/>
	<path class="st0" d="M43.7,20.7c0,0,0.1-0.1,0.1-0.1C43.8,20.6,43.7,20.6,43.7,20.7c-0.1,0.2-0.2,0.3-0.3,0.4c0,0,0,0,0,0
		C43.4,21,43.6,20.8,43.7,20.7z"/>
	<path class="st0" d="M39.7,22c0-0.1,0-0.2,0-0.2c-0.2-0.3-0.5-0.4-0.7-0.4c0.2,0.1,0.4,0.2,0.7,0.4C39.7,21.9,39.7,22,39.7,22z"/>
	<path class="st0" d="M35.8,24.8L35.8,24.8c0,0,0.1-0.1,0.1-0.1C35.9,24.8,35.8,24.8,35.8,24.8z"/>
	<path class="st0" d="M43.4,24.8c0,0,0.1-0.1,0.1-0.1C43.5,24.8,43.4,24.8,43.4,24.8c-0.1,0.2-0.2,0.3-0.4,0.4c0,0,0-0.1,0-0.1
		c0,0,0,0.1,0,0.1C43.1,25.1,43.2,25,43.4,24.8z"/>
	<path class="st0" d="M43.4,20.9c0-0.1,0.1-0.3,0.1-0.4c0-0.1,0-0.2,0-0.3c0,0.1,0,0.2,0,0.3C43.5,20.6,43.4,20.8,43.4,20.9z"/>
	<path class="st0" d="M43.6,19.8C43.6,19.8,43.6,19.8,43.6,19.8C43.6,19.8,43.6,19.8,43.6,19.8z"/>
	<path class="st0" d="M42.5,19.2c0.1,0,0.1,0,0.2,0c0.2,0,0.6,0.1,0.9,0.5l0,0c-0.3-0.4-0.7-0.5-0.9-0.5
		C42.6,19.2,42.5,19.2,42.5,19.2c-0.5,0-1,0.7-1,1.3l0,0C41.5,19.9,41.9,19.2,42.5,19.2z"/>
	<path class="st0" d="M43,28.1c0,0,0,0.1,0,0.1C43,28.1,43,28.1,43,28.1z"/>
	<path class="st0" d="M42.9,28.3C43,28.3,43,28.3,42.9,28.3C43,28.3,43,28.3,42.9,28.3L42.9,28.3z"/>
	<path class="st0" d="M52.2,23.3c0-0.1-0.1-0.1-0.1-0.2C52.1,23.2,52.2,23.3,52.2,23.3z"/>
	<path class="st0" d="M35.7,23.9c0,0,0.1,0.1,0.1,0.1C35.8,24,35.7,23.9,35.7,23.9c-0.1-0.1-0.2-0.2-0.3-0.3l0,0
		C35.5,23.7,35.6,23.8,35.7,23.9z"/>
	<path class="st0" d="M43.3,29C43.3,29,43.3,29,43.3,29C43.3,29,43.3,29,43.3,29c0,0,0.1,0.1,0.1,0.1C43.4,29,43.4,29,43.3,29z"/>
	<path class="st0" d="M38.6,21.3c0.1,0,0.1,0,0.2,0c0.1,0,0.1,0,0.2,0c-0.1,0-0.1,0-0.2,0C38.7,21.3,38.6,21.3,38.6,21.3
		c-0.3,0-0.6,0.3-0.8,0.6C37.9,21.6,38.2,21.3,38.6,21.3z"/>
	<path class="st0" d="M43.1,29c0,0,0.1-0.1,0.1-0.1C43.1,28.9,43.1,28.9,43.1,29c-0.1,0.2-0.2,0.3-0.4,0.4l0,0
		C42.8,29.3,42.9,29.2,43.1,29z"/>
	<path class="st0" d="M41.9,27.5c0.1,0,0.1,0,0.2,0c0.2,0,0.6,0.1,0.9,0.5l0,0c-0.3-0.4-0.7-0.5-0.9-0.5
		C42,27.5,41.9,27.5,41.9,27.5c-0.5,0-1,0.7-1,1.3l0,0C40.9,28.2,41.3,27.5,41.9,27.5z"/>
	<path class="st0" d="M35.6,24.6L35.6,24.6c0-0.1,0-0.3-0.1-0.5l0,0C35.6,24.3,35.6,24.5,35.6,24.6z"/>
	<path class="st0" d="M42.8,28.8c0,0.2,0,0.3-0.1,0.5C42.8,29.1,42.8,29,42.8,28.8c0-0.1,0-0.3-0.1-0.5l0,0
		C42.8,28.5,42.8,28.7,42.8,28.8z"/>
	<path class="st0" d="M35.5,29c0,0,0.1-0.1,0.1-0.1C35.6,28.9,35.5,28.9,35.5,29c-0.1,0.2-0.2,0.3-0.3,0.4l0,0
		C35.3,29.3,35.4,29.2,35.5,29z"/>
	<path class="st0" d="M53.4,13.8C53.4,13.8,53.4,13.8,53.4,13.8C53.4,13.8,53.4,13.8,53.4,13.8L53.4,13.8z"/>
	<path class="st0" d="M38.2,10.1c0,0.2,0.1,0.5,0.2,0.7C38.3,10.6,38.2,10.3,38.2,10.1c0-0.6,0.4-1.3,1-1.3c0.1,0,0.1,0,0.2,0
		c0.2,0,0.6,0.1,0.9,0.5c0.1,0.1,0.1,0.2,0,0.3l0,0c0.1-0.1,0.1-0.2,0-0.3c-0.3-0.4-0.7-0.5-0.9-0.5c-0.1,0-0.1,0-0.2,0
		C38.7,8.8,38.2,9.6,38.2,10.1z"/>
	<path class="st0" d="M50.6,12.6c0-0.1,0-0.2,0-0.2c0,0,0,0,0,0c0,0,0,0,0,0C50.6,12.4,50.6,12.5,50.6,12.6z"/>
	<path class="st0" d="M53.6,10.3c0,0,0.1-0.1,0.1-0.1C53.6,10.2,53.6,10.3,53.6,10.3c-0.1,0.2-0.2,0.3-0.4,0.4l0,0
		C53.3,10.6,53.4,10.5,53.6,10.3z"/>
	<path class="st0" d="M53.9,14.6c0-0.1,0-0.1-0.1-0.1c0,0,0,0,0,0c0,0,0,0,0,0C53.9,14.5,53.9,14.5,53.9,14.6z"/>
	<path class="st0" d="M53.8,10.3c0,0,0.1,0.1,0.1,0.1C53.9,10.3,53.9,10.3,53.8,10.3z"/>
	<path class="st0" d="M53.3,14.3L53.3,14.3c0-0.1,0-0.3-0.1-0.5l0,0C53.3,14,53.3,14.1,53.3,14.3z"/>
	<path class="st0" d="M52.4,13c0.1,0,0.1,0,0.2,0c0.2,0,0.6,0.1,0.9,0.5c0,0,0.1,0.1,0.1,0.1c0-0.1,0-0.1-0.1-0.1
		c-0.3-0.4-0.7-0.5-0.9-0.5C52.5,13,52.4,13,52.4,13c-0.4,0-0.8,0.4-0.9,0.9C51.6,13.4,51.9,13,52.4,13z"/>
	<path class="st0" d="M53.6,14.5c0,0,0.1-0.1,0.1-0.1C53.6,14.4,53.6,14.4,53.6,14.5c-0.1,0.2-0.2,0.3-0.4,0.4c0,0,0,0,0,0
		C53.3,14.7,53.4,14.6,53.6,14.5z"/>
	<path class="st0" d="M52.4,8.8c0.1,0,0.1,0,0.2,0c0.2,0,0.6,0.1,0.9,0.5c0,0,0.1,0.1,0.1,0.1c0-0.1,0-0.1-0.1-0.1
		c-0.3-0.4-0.7-0.5-0.9-0.5C52.5,8.8,52.4,8.8,52.4,8.8c-0.4,0-0.8,0.4-0.9,0.9C51.6,9.3,51.9,8.8,52.4,8.8z"/>
	<path class="st0" d="M56.7,11.7C56.8,11.7,56.8,11.6,56.7,11.7C56.8,11.6,56.8,11.7,56.7,11.7L56.7,11.7z"/>
	<polygon class="st0" points="57.1,12.3 57.1,12.3 57.1,12.3 	"/>
	<path class="st0" d="M56.8,11.5C56.8,11.5,56.8,11.5,56.8,11.5C56.8,11.5,56.8,11.5,56.8,11.5z"/>
	<path class="st0" d="M57.1,12.4C57.2,12.4,57.2,12.4,57.1,12.4C57.2,12.4,57.2,12.4,57.1,12.4z"/>
	<path class="st0" d="M54.7,12.2c0-0.6,0.4-1.3,1-1.3c0.1,0,0.1,0,0.2,0c0.2,0,0.6,0.1,0.9,0.5l0,0c-0.3-0.4-0.7-0.5-0.9-0.5
		c-0.1,0-0.1,0-0.2,0C55.1,10.9,54.7,11.6,54.7,12.2c0,0.2,0.1,0.4,0.2,0.7C54.7,12.6,54.7,12.4,54.7,12.2z"/>
	<path class="st0" d="M56.3,15c-0.5,0-1,0.7-1,1.3l0,0C55.3,15.8,55.8,15,56.3,15c0.1,0,0.1,0,0.2,0c0.2,0,0.6,0.1,0.9,0.5
		c0,0,0.1,0.1,0.1,0.1c0-0.1,0-0.1-0.1-0.1c-0.3-0.4-0.7-0.5-0.9-0.5C56.4,15.1,56.4,15,56.3,15z"/>
	<path class="st0" d="M56.8,12.4c0,0,0.1-0.1,0.1-0.1C56.9,12.3,56.9,12.3,56.8,12.4c-0.1,0.2-0.2,0.3-0.4,0.4l0,0
		C56.6,12.6,56.7,12.5,56.8,12.4z"/>
	<path class="st0" d="M56.6,12.2L56.6,12.2c0-0.1,0-0.3-0.1-0.5l0,0C56.6,11.9,56.6,12,56.6,12.2z"/>
	<path class="st0" d="M53.4,9.6C53.5,9.6,53.5,9.6,53.4,9.6C53.5,9.6,53.5,9.6,53.4,9.6L53.4,9.6z"/>
	<path class="st0" d="M44,12.5c0-0.1,0-0.1-0.1-0.1c0,0,0,0,0,0c0,0,0,0,0,0C44,12.4,44,12.4,44,12.5z"/>
	<path class="st0" d="M43.4,12.6c0.1-0.2,0.1-0.3,0.1-0.5c0-0.1,0-0.2-0.1-0.3c0,0.1,0.1,0.2,0.1,0.3C43.5,12.3,43.4,12.5,43.4,12.6
		z"/>
	<path class="st0" d="M43.7,12.4c0,0,0.1-0.1,0.1-0.1C43.8,12.3,43.7,12.3,43.7,12.4c-0.1,0.2-0.2,0.3-0.3,0.4l0,0
		C43.4,12.6,43.6,12.5,43.7,12.4z"/>
	<path class="st0" d="M43.6,11.5C43.6,11.5,43.6,11.5,43.6,11.5C43.6,11.5,43.6,11.5,43.6,11.5z"/>
	<path class="st0" d="M40.6,10.3c0,0,0.1,0.1,0.1,0.1C40.7,10.3,40.7,10.3,40.6,10.3z"/>
	<path class="st0" d="M40.4,10.3c0,0,0.1-0.1,0.1-0.1C40.5,10.2,40.4,10.3,40.4,10.3c-0.1,0.2-0.2,0.3-0.4,0.4l0,0
		C40.1,10.6,40.3,10.5,40.4,10.3z"/>
	<path class="st0" d="M40.2,10.1L40.2,10.1c0-0.1,0-0.3-0.1-0.5l0,0C40.1,9.8,40.2,10,40.2,10.1z"/>
	<path class="st0" d="M45.8,8.8c-0.5,0-1,0.7-1,1.3l0,0C44.8,9.6,45.2,8.8,45.8,8.8c0.1,0,0.1,0,0.2,0c0.2,0,0.6,0.1,0.9,0.5
		c0,0,0.1,0.1,0.1,0.1c0-0.1,0-0.1-0.1-0.1C46.5,9,46.2,8.9,46,8.9C45.9,8.8,45.8,8.8,45.8,8.8z"/>
	<path class="st0" d="M42.5,10.9c0.1,0,0.1,0,0.2,0c0.2,0,0.6,0.1,0.9,0.5l0,0c-0.3-0.4-0.7-0.5-0.9-0.5
		C42.6,10.9,42.5,10.9,42.5,10.9c-0.5,0-1,0.7-1,1.3l0,0C41.5,11.6,41.9,10.9,42.5,10.9z"/>
	<path class="st0" d="M47.2,10.6C47.2,10.6,47.3,10.6,47.2,10.6c0.1-0.1,0.1-0.1,0.1-0.1C47.3,10.5,47.3,10.5,47.2,10.6
		C47.3,10.6,47.2,10.6,47.2,10.6z"/>
	<path class="st0" d="M47,10.3L47,10.3c0,0,0.1-0.1,0.1-0.1C47.1,10.2,47,10.3,47,10.3z"/>
	<path class="st0" d="M48.5,11.2c-0.1,0.1-0.2,0.2-0.2,0.3C48.3,11.4,48.4,11.3,48.5,11.2z"/>
	<path class="st0" d="M46.7,10.1L46.7,10.1c0-0.1,0-0.3-0.1-0.5l0,0C46.7,9.8,46.7,10,46.7,10.1z"/>
	<path class="st0" d="M50,12.2L50,12.2c0-0.1,0-0.3-0.1-0.5l0,0C50,11.9,50,12,50,12.2z"/>
	<path class="st0" d="M49.2,10.9c0.2,0,0.6,0.1,0.9,0.5c0,0,0.1,0.1,0.1,0.1c0-0.1,0-0.1-0.1-0.1C49.8,11,49.5,10.9,49.2,10.9
		c-0.1,0-0.1,0-0.2,0c-0.2,0-0.4,0.1-0.5,0.3c0.2-0.2,0.3-0.3,0.5-0.3C49.1,10.9,49.2,10.9,49.2,10.9z"/>
	<path class="st0" d="M50.3,12.4c0,0,0.1-0.1,0.1-0.1C50.3,12.3,50.3,12.3,50.3,12.4c-0.1,0.2-0.2,0.3-0.4,0.4c0-0.1,0-0.1,0.1-0.2
		c0,0.1,0,0.1-0.1,0.2C50,12.6,50.1,12.5,50.3,12.4z"/>
	<path class="st0" d="M46.8,10.5c-0.1,0.1-0.1,0.1-0.2,0.2c0-0.1,0-0.1,0.1-0.2c0,0.1,0,0.1-0.1,0.2C46.7,10.6,46.7,10.6,46.8,10.5z
		"/>
	<path class="st0" d="M47.3,10.4c0-0.1,0-0.1-0.1-0.1c0,0,0,0,0,0h0C47.3,10.3,47.3,10.3,47.3,10.4z"/>
	<path class="st0" d="M53.3,10.1L53.3,10.1c0-0.1,0-0.3-0.1-0.5l0,0C53.3,9.8,53.3,10,53.3,10.1z"/>
	<path class="st0" d="M58.3,7.4C58.3,7.4,58.3,7.4,58.3,7.4C58.3,7.4,58.3,7.4,58.3,7.4z"/>
	<path class="st0" d="M54.7,26.9C54.7,26.9,54.7,26.9,54.7,26.9c0.1,0.1,0.1,0.2,0,0.3c0,0,0,0,0,0c0,0,0,0,0,0
		C54.8,27.1,54.8,27,54.7,26.9C54.7,26.9,54.7,26.9,54.7,26.9z"/>
	<ellipse transform="matrix(0.6783 -0.7348 0.7348 0.6783 6.039035e-02 50.5636)" class="st0" cx="57.8" cy="25.2" rx="0" ry="0"/>
	<path class="st0" d="M59.3,8.8c0.1,0.3,0.3,0.6,0.4,0.9C59.6,9.3,59.5,9,59.3,8.8z"/>
	<path class="st0" d="M54.1,22c0-0.1,0-0.1-0.1-0.1c-0.2-0.3-0.5-0.4-0.7-0.4c0.2,0,0.5,0.2,0.7,0.4C54.1,21.9,54.1,21.9,54.1,22z"
		/>
	<path class="st0" d="M62.9,38.7c0.1,0,0.2,0,0.3,0.1C63.1,38.8,63,38.7,62.9,38.7z"/>
	<path class="st0" d="M53.9,22.6L53.9,22.6c0-0.1,0-0.3-0.1-0.5l0,0C53.9,22.3,53.9,22.4,53.9,22.6z"/>
	<path class="st0" d="M52,22.6c0-0.6,0.4-1.3,1-1.3c0.1,0,0.1,0,0.2,0c0.1,0,0.1,0,0.2,0c-0.1,0-0.1,0-0.2,0c-0.1,0-0.1,0-0.2,0
		C52.4,21.3,52,22,52,22.6c0,0.1,0,0.3,0.1,0.4C52,22.8,52,22.7,52,22.6z"/>
	<path class="st0" d="M54.4,27.1c-0.1,0.1-0.2,0.2-0.3,0.3c0-0.1,0-0.1,0.1-0.2c0,0.1,0,0.1-0.1,0.2C54.2,27.2,54.3,27.2,54.4,27.1z
		"/>
	<path class="st0" d="M54.2,26.8c0-0.1,0-0.3-0.1-0.5l0,0C54.2,26.4,54.2,26.6,54.2,26.8z"/>
	<path class="st0" d="M53.3,25.5c0.1,0,0.1,0,0.2,0c0.2,0,0.6,0.1,0.9,0.5c0,0,0.1,0.1,0.1,0.1c0-0.1,0-0.1-0.1-0.1
		c-0.3-0.4-0.7-0.5-0.9-0.5C53.4,25.5,53.3,25.5,53.3,25.5c-0.5,0-1,0.7-1,1.3C52.3,26.2,52.7,25.5,53.3,25.5z"/>
	<path class="st0" d="M54.5,26.9c0,0,0.1-0.1,0.1-0.1C54.6,26.9,54.5,26.9,54.5,26.9z"/>
	<path class="st0" d="M58.1,29.8c0.1-0.1,0.2-0.2,0.4-0.3l0,0C58.4,29.6,58.2,29.7,58.1,29.8z"/>
	<path class="st0" d="M58.2,28.8L58.2,28.8c0-0.1,0-0.3-0.1-0.5l0,0C58.2,28.5,58.2,28.7,58.2,28.8z"/>
	<path class="st0" d="M57.2,27.5c0.1,0,0.1,0,0.2,0c0.2,0,0.6,0.1,0.9,0.5c0,0,0.1,0.1,0.1,0.1c0-0.1,0-0.1-0.1-0.1
		c-0.3-0.4-0.7-0.5-0.9-0.5C57.4,27.5,57.3,27.5,57.2,27.5c-0.3,0-0.5,0.2-0.7,0.5C56.7,27.7,56.9,27.5,57.2,27.5z"/>
	<path class="st0" d="M58.4,29C58.4,29,58.5,29,58.4,29C58.5,29,58.5,29,58.4,29C58.5,29,58.4,29,58.4,29c-0.1,0.2-0.2,0.3-0.4,0.4
		l0,0C58.2,29.3,58.3,29.2,58.4,29z"/>
	<path class="st0" d="M27.7,42.6L27.7,42.6c0,0,0.7-0.1,2.3-0.3v0C28.4,42.4,27.7,42.6,27.7,42.6z"/>
	<path class="st0" d="M57.6,16.4c-0.1,0-0.1,0-0.1,0.1c-0.1,0.1-0.1,0.1-0.2,0.2c0.1-0.1,0.1-0.1,0.2-0.2
		C57.5,16.5,57.6,16.5,57.6,16.4z"/>
	<path class="st0" d="M57.8,16.6c0-0.1,0-0.1-0.1-0.1c0,0,0,0,0,0c0,0,0,0,0,0C57.8,16.5,57.8,16.6,57.8,16.6z"/>
	<path class="st0" d="M57.3,16.7c-0.1,0.1-0.1,0.1-0.2,0.2c0,0,0,0,0,0C57.2,16.9,57.3,16.8,57.3,16.7z"/>
	<path class="st0" d="M56.9,23.4L56.9,23.4c-0.5,0.1-0.9,0.7-0.9,1.3l0,0C56,24.1,56.4,23.4,56.9,23.4z"/>
	<path class="st0" d="M58.3,28.3C58.3,28.3,58.3,28.3,58.3,28.3C58.3,28.3,58.3,28.3,58.3,28.3L58.3,28.3z"/>
	<path class="st0" d="M54.2,22.8c0,0,0.1-0.1,0.1-0.1C54.3,22.7,54.2,22.7,54.2,22.8c-0.1,0.2-0.2,0.3-0.4,0.4l0,0
		C53.9,23.1,54,22.9,54.2,22.8z"/>
	<path class="st0" d="M57.2,16c0-0.1,0-0.1,0-0.2l0,0C57.2,15.9,57.2,16,57.2,16z"/>
	<path class="st0" d="M73.1,137.3h3.2c5.4,0,10.1-2.9,12.7-7.3c-1.3-2.2-2-4.7-2-7.4c0,5.9-4.8,10.7-10.7,10.7h-3.2
		c-5.9,0-10.7-4.8-10.7-10.7v-5c0,1.1-0.9,2-2,2s-2-0.9-2-2v5C58.5,130.8,65.1,137.3,73.1,137.3z"/>
	<path class="st0" d="M73.1,70.8h3.2c5.9,0,10.7,4.8,10.7,10.7c0-2.7,0.7-5.2,2-7.4c-2.5-4.4-7.3-7.3-12.7-7.3h-3.2
		c-4.2,0-8,1.8-10.7,4.6v10C62.5,75.6,67.3,70.8,73.1,70.8z"/>
	<path class="st0" d="M87,122.7c0,2.7,0.7,5.2,2,7.4c2.5,4.4,7.3,7.3,12.7,7.3h3.2c5.4,0,10.1-2.9,12.7-7.3c-1.3-2.2-2-4.7-2-7.4
		c0,5.9-4.8,10.7-10.7,10.7h-3.2c-5.9,0-10.7-4.8-10.7-10.7V81.5c0-5.9,4.8-10.7,10.7-10.7h3.2c5.9,0,10.7,4.8,10.7,10.7
		c0-2.7,0.7-5.2,2-7.4c-2.5-4.4-7.3-7.3-12.7-7.3h-3.2c-5.4,0-10.1,2.9-12.7,7.3c-1.3,2.2-2,4.7-2,7.4V122.7z"/>
	<path class="st0" d="M133.3,66.8h-3.2c-5.4,0-10.1,2.9-12.7,7.3c-1.3,2.2-2,4.7-2,7.4v41.2c0,2.7,0.7,5.2,2,7.4
		c2.5,4.4,7.3,7.3,12.7,7.3h3.2c4.2,0,8-1.8,10.7-4.6v-10c0,5.9-4.8,10.7-10.7,10.7h-3.2c-5.9,0-10.7-4.8-10.7-10.7V81.5
		c0-5.9,4.8-10.7,10.7-10.7h3.2c5.9,0,10.7,4.8,10.7,10.7v41.2c0-1.1,0.9-2,2-2s2,0.9,2,2V81.5C148,73.4,141.4,66.8,133.3,66.8z"/>
	<path class="st0" d="M48.3,116.2c-5.4,7.5-17.6,7.6-17.7,7.6c-1.1,0-2,0.9-2,2v9.5c0,1.1,0.9,2,2,2c0.1,0,12,0.1,23.8,4.6
		c15.4,6,23.2,16.5,23.2,31.4c0,1.1,0.9,2,2,2s2-0.9,2-2c0-35-39.5-39.4-49-39.9v-5.7c4.2-0.4,13.8-2,19-9.2
		c3.9-5.5,4.4-12.8,1.4-21.9c-0.3-0.8-1-1.4-1.9-1.4H34v2c0,1.1-0.9,2-2,2h17.5C51.6,106.5,51.2,112.1,48.3,116.2z"/>
	<path class="st0" d="M146,120.7c-1.1,0-2,0.9-2,2v10v69.5c0,5.9-4.8,10.7-10.7,10.7H14.7c-5.9,0-10.7-4.8-10.7-10.7V110
		c0-5.9,4.8-10.7,10.7-10.7H32c-1.1,0-2-0.9-2-2v-2H14.7C6.6,95.3,0,101.9,0,110v92.2c0,8.1,6.6,14.7,14.7,14.7h118.7
		c8.1,0,14.7-6.6,14.7-14.7v-79.5C148,121.6,147.1,120.7,146,120.7z"/>
	<path class="st0" d="M58.5,29.5C58.5,29.5,58.5,29.5,58.5,29.5C58.5,29.5,58.5,29.5,58.5,29.5L58.5,29.5z"/>
	<path class="st0" d="M33.5,29.5c0-0.1-0.1-0.1-0.1-0.2C33.5,29.4,33.5,29.5,33.5,29.5z"/>
	<path class="st0" d="M58.6,28.9C58.5,28.9,58.5,28.9,58.6,28.9C58.5,29,58.5,29,58.6,28.9C58.5,29,58.5,28.9,58.6,28.9z"/>
	<path class="st0" d="M62.5,36.7c-0.1-0.6-0.2-1.2-0.3-1.9C62.3,35.5,62.4,36.1,62.5,36.7L62.5,36.7z"/>
	<path class="st0" d="M57.9,24.6c0,0.1,0,0.3-0.1,0.4C57.9,24.9,57.9,24.8,57.9,24.6c0-0.1,0-0.3-0.1-0.5l0,0
		C57.9,24.3,57.9,24.5,57.9,24.6z"/>
	<path class="st0" d="M58.5,41.9L58.5,41.9c1.7,0.1,3,0.2,4,0.3l0,0C61.5,42.2,60.2,42,58.5,41.9z"/>
	<path class="st0" d="M34.1,27.6L34.1,27.6c-0.4,0.2-0.7,0.8-0.7,1.2c0,0.1,0,0.3,0.1,0.4c0-0.1-0.1-0.3-0.1-0.4
		C33.3,28.3,33.7,27.8,34.1,27.6z"/>
	<path class="st0" d="M45.8,17.2c0.1,0,0.1,0,0.2,0c0.2,0,0.6,0.1,0.9,0.5c0,0,0.1,0.1,0.1,0.1c0-0.1,0-0.1-0.1-0.1
		c-0.3-0.4-0.7-0.5-0.9-0.5C45.9,17.2,45.8,17.2,45.8,17.2c-0.5,0-0.9,0.6-1,1.2l0,0C44.9,17.8,45.3,17.2,45.8,17.2z"/>
	<path class="st0" d="M58.7,29C58.7,29,58.7,29,58.7,29C58.7,29,58.7,29,58.7,29c0.1,0.1,0.1,0.1,0,0.2C58.8,29.1,58.8,29,58.7,29z"
		/>
	<path class="st0" d="M46.7,18.3L46.7,18.3c0-0.1,0-0.2-0.1-0.3l0,0C46.7,18.1,46.7,18.2,46.7,18.3z"/>
	<path class="st0" d="M57.8,20.7c0,0,0.1-0.1,0.1-0.1C57.9,20.6,57.9,20.6,57.8,20.7c-0.1,0.2-0.2,0.3-0.4,0.4c0,0,0-0.1,0-0.1
		c0,0,0,0.1,0,0.1C57.6,21,57.7,20.8,57.8,20.7z"/>
	<path class="st0" d="M57.6,20.5L57.6,20.5c0-0.1,0-0.3-0.1-0.5l0,0C57.6,20.2,57.6,20.3,57.6,20.5z"/>
	<path class="st0" d="M56.6,19.2c-0.4,0-0.7,0.4-0.9,0.8C55.9,19.6,56.2,19.2,56.6,19.2c0.1,0,0.1,0,0.2,0c0.2,0,0.6,0.1,0.9,0.5
		c0,0,0.1,0.1,0.1,0.1c0-0.1,0-0.1-0.1-0.1c-0.3-0.4-0.7-0.5-0.9-0.5C56.7,19.2,56.7,19.2,56.6,19.2z"/>
	<path class="st0" d="M34,41.9c-1.7,0.1-3,0.2-4,0.3v0C30.9,42.2,32.3,42,34,41.9L34,41.9z"/>
	<path class="st0" d="M39.9,18.8c-0.1,0.1-0.1,0.1-0.2,0.2c0-0.1,0-0.1,0.1-0.2c0,0.1,0,0.1-0.1,0.2C39.8,19,39.8,18.9,39.9,18.8z"
		/>
	<path class="st0" d="M56.9,23.4c0.1,0,0.1,0,0.2,0c0.2,0,0.6,0.1,0.9,0.5c0,0,0.1,0.1,0.1,0.1c0-0.1,0-0.1-0.1-0.1
		c-0.3-0.4-0.7-0.5-0.9-0.5C57,23.4,57,23.4,56.9,23.4C56.9,23.4,56.9,23.4,56.9,23.4L56.9,23.4C56.9,23.4,56.9,23.4,56.9,23.4z"/>
	<path class="st0" d="M58.1,24.8c0,0,0.1-0.1,0.1-0.1C58.2,24.8,58.2,24.8,58.1,24.8c-0.1,0.2-0.2,0.3-0.3,0.4l0,0
		C57.9,25.1,58,25,58.1,24.8z"/>
	<path class="st0" d="M58.2,20.8c0-0.1,0-0.1-0.1-0.1h0h0C58.1,20.7,58.1,20.7,58.2,20.8z"/>
	<path class="st0" d="M58.5,81.5v36.2c0,1.1,0.9,2,2,2s2-0.9,2-2V81.5v-10V48.3c-0.8-0.1-2.1-0.2-4-0.4V81.5z"/>
	<path class="st0" d="M58.5,24.9c0-0.1,0-0.1-0.1-0.1c0,0,0,0,0,0c0,0,0,0,0,0C58.4,24.8,58.5,24.9,58.5,24.9z"/>
	<path class="st0" d="M58.1,25.5c0.1-0.1,0.2-0.2,0.4-0.4c0,0,0-0.1,0-0.1c0,0,0,0.1,0,0.1C58.3,25.2,58.2,25.4,58.1,25.5z"/>
	<path class="st0" d="M38.9,17.2c0.1,0,0.1,0,0.2,0c0.2,0,0.6,0.1,0.9,0.5c0,0,0.1,0.1,0.1,0.1c0-0.1,0-0.1-0.1-0.1
		c-0.3-0.4-0.7-0.5-0.9-0.5C39,17.2,38.9,17.2,38.9,17.2c-0.5,0-1,0.7-1,1.3l0,0C37.9,17.9,38.3,17.2,38.9,17.2z"/>
	<path class="st0" d="M46.9,14.5c-0.1,0.1-0.2,0.3-0.3,0.3c0,0,0-0.1,0-0.1c0,0,0,0.1,0,0.1C46.7,14.8,46.8,14.6,46.9,14.5z"/>
	<path class="st0" d="M39.9,18.4L39.9,18.4c0-0.1,0-0.3-0.1-0.5l0,0C39.8,18.1,39.9,18.3,39.9,18.4z"/>
	<path class="st0" d="M47.3,14.6c0-0.1,0-0.1-0.1-0.1c0,0,0,0,0,0c0,0,0,0,0,0C47.3,14.5,47.3,14.5,47.3,14.6z"/>
	<path class="st0" d="M47.3,14.7C47.3,14.7,47.3,14.7,47.3,14.7C47.3,14.7,47.3,14.7,47.3,14.7L47.3,14.7z"/>
	<path class="st0" d="M42.5,15c0.1,0,0.1,0,0.2,0c0.2,0,0.6,0.1,0.9,0.5l0,0c-0.3-0.4-0.7-0.5-0.9-0.5C42.6,15.1,42.5,15,42.5,15
		c-0.5,0-1,0.7-1,1.3l0,0C41.5,15.8,41.9,15,42.5,15z"/>
	<path class="st0" d="M43.4,16.7c0-0.1,0.1-0.3,0.1-0.4c0-0.1,0-0.2-0.1-0.3c0,0.1,0.1,0.2,0.1,0.3C43.5,16.5,43.4,16.6,43.4,16.7z"
		/>
	<path class="st0" d="M47,14.5L47,14.5c0,0,0.1-0.1,0.1-0.1C47.1,14.4,47,14.4,47,14.5z"/>
	<path class="st0" d="M40.4,18.7c0-0.1,0-0.1-0.1-0.1c0,0,0,0,0,0c0,0,0,0,0,0C40.4,18.6,40.4,18.7,40.4,18.7z"/>
	<path class="st0" d="M43.7,16.5c0,0,0.1-0.1,0.1-0.1C43.8,16.5,43.7,16.5,43.7,16.5c-0.1,0.2-0.2,0.3-0.3,0.4c0,0,0,0,0,0
		C43.4,16.8,43.6,16.7,43.7,16.5z"/>
	<path class="st0" d="M53.6,18.1C53.6,18,53.6,18,53.6,18.1L53.6,18.1C53.6,18,53.6,18,53.6,18.1z"/>
	<path class="st0" d="M54.2,18.7c0-0.1,0-0.1-0.1-0.1c0,0,0,0,0,0c0,0,0,0,0,0C54.2,18.6,54.2,18.7,54.2,18.7z"/>
	<path class="st0" d="M50.5,16.5C50.5,16.5,50.5,16.5,50.5,16.5C50.5,16.5,50.5,16.5,50.5,16.5c0.1,0.1,0.1,0.2,0,0.2
		C50.6,16.6,50.6,16.5,50.5,16.5z"/>
	<path class="st0" d="M53.7,18.8c-0.1,0.1-0.1,0.1-0.2,0.2c0,0,0-0.1,0-0.1c0,0,0,0.1,0,0.1C53.6,19,53.6,18.9,53.7,18.8z"/>
	<path class="st0" d="M48.3,15.7c0.1-0.1,0.1-0.2,0.2-0.3C48.4,15.4,48.3,15.6,48.3,15.7z"/>
	<path class="st0" d="M53.9,18.6L53.9,18.6c0,0,0.1-0.1,0.1-0.1C53.9,18.6,53.9,18.6,53.9,18.6z"/>
	<path class="st0" d="M54.1,18.9C54.1,18.9,54.1,18.9,54.1,18.9c0.1-0.1,0.1-0.1,0.1-0.1C54.2,18.8,54.2,18.8,54.1,18.9
		C54.1,18.9,54.1,18.9,54.1,18.9z"/>
	<path class="st0" d="M40.3,18.9C40.4,18.9,40.4,18.9,40.3,18.9c0.1-0.1,0.1-0.1,0.1-0.1C40.4,18.8,40.4,18.8,40.3,18.9
		C40.4,18.9,40.4,18.9,40.3,18.9z"/>
	<path class="st0" d="M52.7,17.2c0.1,0,0.1,0,0.2,0c0.2,0,0.6,0.1,0.9,0.5c0,0,0.1,0.1,0.1,0.1c0-0.1,0-0.1-0.1-0.1
		c-0.3-0.4-0.7-0.5-0.9-0.5C52.8,17.2,52.7,17.2,52.7,17.2c-0.5,0-1,0.7-1,1.3l0,0C51.7,17.9,52.1,17.2,52.7,17.2z"/>
	<path class="st0" d="M43.6,15.6C43.6,15.6,43.6,15.7,43.6,15.6C43.6,15.7,43.6,15.6,43.6,15.6z"/>
	<path class="st0" d="M49.2,15.1c0.2,0,0.6,0.1,0.9,0.5c0,0,0.1,0.1,0.1,0.1c0-0.1,0-0.1-0.1-0.1C49.8,15.2,49.5,15.1,49.2,15.1
		c-0.1,0-0.1,0-0.2,0c-0.2,0-0.4,0.1-0.5,0.3c0.2-0.2,0.3-0.3,0.5-0.3C49.1,15,49.2,15.1,49.2,15.1z"/>
	<path class="st0" d="M36.4,20.6c0,0,0.1,0.1,0.1,0.1C36.5,20.7,36.4,20.7,36.4,20.6z"/>
	<path class="st0" d="M34.6,23.4c0.1,0,0.1,0,0.2,0c0.2,0,0.4,0.1,0.6,0.2l0,0c-0.2-0.2-0.4-0.2-0.6-0.2
		C34.7,23.4,34.7,23.4,34.6,23.4c-0.5,0-1,0.7-1,1.3l0,0C33.6,24.1,34.1,23.4,34.6,23.4z"/>
	<path class="st0" d="M34.1,21.1C34,20.9,34,20.7,34,20.5c0-0.6,0.4-1.3,1-1.3c0.1,0,0.1,0,0.2,0c0.2,0,0.6,0.1,0.9,0.5
		c0,0,0.1,0.1,0.1,0.1c0-0.1,0-0.1-0.1-0.1c-0.3-0.4-0.7-0.5-0.9-0.5c-0.1,0-0.1,0-0.2,0c-0.5,0-1,0.7-1,1.3
		C34,20.7,34,20.9,34.1,21.1z"/>
	<path class="st0" d="M35.9,20.5L35.9,20.5c0-0.1,0-0.3-0.1-0.5l0,0C35.9,20.2,35.9,20.3,35.9,20.5z"/>
	<polygon class="st0" points="36.8,16.6 36.8,16.6 36.8,16.6 	"/>
	<path class="st0" d="M36.1,20.7c0,0,0.1-0.1,0.1-0.1C36.2,20.6,36.2,20.6,36.1,20.7c-0.1,0.2-0.2,0.3-0.4,0.4c0,0,0,0,0,0
		C35.9,21,36,20.8,36.1,20.7z"/>
	<path class="st0" d="M43.9,16.5C43.9,16.5,43.9,16.5,43.9,16.5C43.9,16.5,43.9,16.5,43.9,16.5c0,0,0.1,0.1,0.1,0.1
		C44,16.6,44,16.5,43.9,16.5z"/>
	<path class="st0" d="M50,16.3L50,16.3c0-0.1,0-0.3-0.1-0.5l0,0C50,16,50,16.2,50,16.3z"/>
	<path class="st0" d="M36,20C36,20,36,20,36,20C36,20,36,20,36,20L36,20z"/>
	<path class="st0" d="M40.1,18.6L40.1,18.6c0,0,0.1-0.1,0.1-0.1C40.2,18.6,40.1,18.6,40.1,18.6z"/>
	<path class="st0" d="M50.3,16.5c0,0,0.1-0.1,0.1-0.1C50.3,16.5,50.3,16.5,50.3,16.5c-0.1,0.2-0.2,0.3-0.4,0.4c0,0,0-0.1,0-0.1
		c0,0,0,0.1,0,0.1C50,16.8,50.1,16.7,50.3,16.5z"/>
	<path class="st0" d="M32,99.3c1.1,0,2-0.9,2-2v-2V47.9c-1.9,0.1-3.2,0.3-4,0.4v47v2C30,98.4,30.9,99.3,32,99.3z"/>
	<path class="st0" d="M46.2,47.6c5.5,0,9.5,0.2,12.3,0.4c1.9,0.1,3.2,0.3,4,0.4c0.8,0.1,1.1,0.2,1.2,0.2c0.4,0.1,0.8,0.1,1.2,0.1
		c1.4,0,2.7-0.5,3.8-1.4c1.4-1.1,2.2-2.8,2.2-4.6v-2c0-2.4-1-4.3-2.5-5.7c-0.6-3.6-0.9-8.6-1.2-13.1c-0.2-3.4-0.5-6.6-0.8-9.2
		c-0.4-3.2-0.9-8.1-5.4-10.7C57.8,0,54,0,48.8,0l-0.5,0l-0.7,0L47,0h-0.3h-0.3l-0.5,0c-0.3,0-0.6,0-0.9,0c-0.3,0-0.6,0-0.9,0
		c-5.7,0.1-9.2,0.2-12.2,1.8c-4.8,2.6-5.4,7.7-5.7,10.8c-0.3,2.6-0.5,5.8-0.7,9.2c-0.3,4.5-0.6,9.5-1.2,13.1
		c-1.5,1.4-2.5,3.3-2.5,5.7v2c0,1.8,0.8,3.5,2.2,4.6c1.1,0.9,2.4,1.4,3.8,1.4c0.4,0,0.8,0,1.2-0.1c0,0,0.4-0.1,1.1-0.2
		c0.8-0.1,2.1-0.2,4-0.4C36.7,47.7,40.8,47.6,46.2,47.6z M28.3,45.5c-0.2,0-0.4,0.1-0.6,0.1c-0.7,0-1.4-0.2-1.9-0.7
		c-0.7-0.6-1.1-1.4-1.1-2.3v-2c0-1.9,1-3.3,2.3-4.1C27.7,32.7,28,27,28.4,22c0.2-3.3,0.4-6.5,0.7-9c0.4-3.6,1-6.8,4-8.5
		c2.3-1.3,5.3-1.3,10.9-1.5c0.3,0,0.6,0,0.9,0c0.3,0,0.6,0,0.9,0l0.5,0h0.3h1.5c5.1,0,8.5,0,10.9,1.3c3.1,1.7,3.7,5,4.1,8.6
		c0.3,2.5,0.5,5.7,0.7,9.1c0.3,5,0.7,10.6,1.4,14.5c1.3,0.8,2.3,2.2,2.3,4.1v2c0,0.9-0.4,1.7-1.1,2.3c-0.5,0.4-1.2,0.7-1.9,0.7
		c-0.2,0-0.4,0-0.6-0.1c0,0-5.1-1-18-1C33.4,44.6,28.3,45.5,28.3,45.5z"/>
	<path class="st0" d="M45,6C44.9,6,44.9,6,45,6c0.1,0,0.2,0,0.3,0C45.2,6,45.1,6,45,6z"/>
	<path class="st0" d="M47.1,14.4c-0.1,0-0.1,0-0.1,0.1l0,0C47,14.4,47.1,14.4,47.1,14.4C47.1,14.4,47.1,14.4,47.1,14.4z"/>
	<polygon class="st0" points="50.5,16.5 50.5,16.5 50.5,16.5 	"/>
	<path class="st0" d="M34,41.9c2.9-0.2,6.9-0.4,12.3-0.4c5.3,0,9.3,0.2,12.3,0.4c1.7,0.1,3,0.2,4,0.3c1.6,0.2,2.3,0.3,2.3,0.3
		c0,0,0-0.4,0-2c0-0.1,0-0.1,0-0.2c0-0.1,0-0.3-0.1-0.4c-0.2-0.8-1-1.1-1.4-1.2c-0.1,0-0.2-0.1-0.3-0.1c-0.1,0-0.1,0-0.1,0
		c-0.1-0.6-0.3-1.3-0.4-2c-0.1-0.6-0.2-1.2-0.3-1.9C61.3,28.2,61,19,60.3,13.3c-0.2-1.5-0.4-2.6-0.7-3.6c-0.1-0.3-0.2-0.7-0.4-0.9
		c-0.3-0.6-0.6-1-1-1.4c0,0,0,0,0,0C56.7,6,53.9,6,48.3,6c-0.8,0-1.3,0-1.5,0c-0.2,0-0.3,0-0.3,0c-0.3,0-0.7,0-1.2,0
		c-0.1,0-0.2,0-0.3,0c-0.3,0-0.5,0-0.8,0c-10.2,0.2-11.2,0.2-12,7.3c-0.7,6-1,16.2-2,22.8c-0.2,0.9-0.3,1.8-0.5,2.6
		c0,0-0.1,0-0.3,0.1c-0.5,0.2-1.6,0.6-1.6,1.8c0,1.6,0,2,0,2c0,0,0.7-0.1,2.3-0.3C30.9,42.2,32.3,42,34,41.9z M35.8,29.2
		c-0.5,0.7-1,0.8-1.3,0.8c-0.1,0-0.1,0-0.2,0c-0.3,0-0.6-0.3-0.8-0.6c0-0.1-0.1-0.1-0.1-0.2c0,0,0-0.1-0.1-0.1
		c0-0.1-0.1-0.3-0.1-0.4c0-0.5,0.3-1,0.7-1.2c0.1,0,0.2-0.1,0.2-0.1c0.1,0,0.1,0,0.2,0c0.2,0,0.6,0.1,0.9,0.5c0.1,0.1,0.1,0.2,0,0.3
		l0,0l0,0c0,0-0.1,0.1-0.1,0.1c0,0,0,0-0.1,0c0.1,0.2,0.1,0.3,0.1,0.5l0,0l0,0c0,0.2,0,0.4-0.1,0.6c0.1-0.1,0.2-0.2,0.3-0.4
		c0,0,0.1-0.1,0.1-0.1c0,0,0,0,0,0c0,0,0.1,0,0.1,0c0,0,0,0,0,0c0,0,0.1,0.1,0.1,0.1C35.9,29.1,35.8,29.2,35.8,29.2z M36.1,25
		c0,0,0,0.1,0,0.1c-0.2,0.2-0.3,0.4-0.5,0.5c-0.3,0.2-0.6,0.3-0.8,0.3c-0.1,0-0.1,0-0.2,0c-0.5,0-1-0.7-1-1.3l0,0l0,0
		c0-0.6,0.4-1.3,1-1.3c0.1,0,0.1,0,0.2,0c0.2,0,0.4,0.1,0.6,0.2c0.1,0.1,0.2,0.1,0.3,0.3c0,0,0.1,0.1,0.1,0.1c0,0.1,0,0.1-0.1,0.1
		c0,0-0.1,0.1-0.1,0.1c0,0,0,0-0.1,0c0.1,0.2,0.1,0.3,0.1,0.5l0,0l0,0c0,0.2,0,0.4-0.1,0.6c0.1-0.1,0.2-0.2,0.3-0.4c0,0,0,0,0,0l0,0
		l0,0c0,0,0.1-0.1,0.1-0.1c0,0,0,0,0,0c0,0,0.1,0,0.1,0c0,0,0,0,0,0C36.1,24.8,36.1,24.9,36.1,25C36.2,24.9,36.1,25,36.1,25z
		 M35.2,17.6c-0.5,0-1-0.7-1-1.3l0,0l0,0c0-0.6,0.4-1.3,1-1.3c0.1,0,0.1,0,0.2,0c0.2,0,0.6,0.1,0.9,0.5c0,0,0.1,0.1,0.1,0.1
		c0,0.1,0,0.1-0.1,0.1c0,0-0.1,0.1-0.1,0.1c0,0,0,0-0.1,0c0,0.1,0,0.1,0,0.2c0,0.1,0.1,0.2,0.1,0.3c0,0.2,0,0.3-0.1,0.5
		c0,0,0,0.1,0,0.1c0.1-0.1,0.2-0.2,0.4-0.4c0,0,0.1-0.1,0.1-0.1c0,0,0,0,0,0c0,0,0.1,0,0.1,0c0,0,0,0,0,0c0,0,0.1,0.1,0.1,0.1
		c0,0,0,0,0,0c0,0.1,0,0.1,0,0.1c-0.5,0.7-1,0.8-1.3,0.8C35.4,17.6,35.3,17.6,35.2,17.6z M37,11.7c0,0-0.1,0.1-0.1,0.1
		c0,0,0,0-0.1,0c0.1,0.2,0.1,0.3,0.1,0.5l0,0l0,0c0,0.2,0,0.4-0.1,0.6c0.1-0.1,0.2-0.2,0.4-0.4c0,0,0.1-0.1,0.1-0.1c0,0,0,0,0,0
		c0,0,0.1,0,0.1,0c0,0,0,0,0,0c0.1,0.1,0.1,0.2,0,0.2c0,0,0,0,0,0c-0.5,0.7-1,0.8-1.3,0.8c-0.1,0-0.1,0-0.2,0c-0.5,0-1-0.7-1-1.3
		c0-0.2,0-0.3,0.1-0.5c0.2-0.4,0.5-0.8,0.9-0.8c0.1,0,0.1,0,0.2,0c0.2,0,0.6,0.1,0.9,0.5c0,0,0.1,0.1,0.1,0.1
		C37,11.6,37,11.6,37,11.7z M38.4,15c-0.1-0.2-0.2-0.5-0.2-0.7c0-0.6,0.4-1.3,1-1.3c0.1,0,0.1,0,0.2,0c0.2,0,0.6,0.1,0.9,0.5
		c0.1,0.1,0.1,0.2,0,0.3l0,0l0,0c0,0-0.1,0.1-0.1,0.1c0,0,0,0-0.1,0c0.1,0.2,0.1,0.3,0.1,0.5l0,0l0,0c0,0.2,0,0.4-0.1,0.6
		c0.1-0.1,0.2-0.2,0.4-0.4c0,0,0.1-0.1,0.1-0.1c0,0,0,0,0,0c0,0,0.1,0,0.1,0c0,0,0,0,0,0c0,0,0.1,0.1,0.1,0.1c0,0.1,0,0.1,0,0.1
		c-0.5,0.7-1,0.8-1.3,0.8c-0.1,0-0.1,0-0.2,0C38.9,15.6,38.6,15.3,38.4,15z M44.8,14.3L44.8,14.3L44.8,14.3c0-0.6,0.4-1.3,1-1.3
		c0.1,0,0.1,0,0.2,0c0.2,0,0.6,0.1,0.9,0.5c0,0,0.1,0.1,0.1,0.1c0,0.1,0,0.1-0.1,0.1c0,0-0.1,0.1-0.1,0.1c0,0,0,0-0.1,0
		c0.1,0.2,0.1,0.3,0.1,0.5l0,0l0,0c0,0.2,0,0.3-0.1,0.5c0,0,0,0.1,0,0.1c0.1-0.1,0.2-0.2,0.3-0.3c0,0,0,0,0,0l0,0l0,0l0,0
		c0,0,0.1-0.1,0.1-0.1c0,0,0,0,0,0c0,0,0,0,0,0c0,0,0.1,0,0.1,0c0,0,0,0,0,0c0,0,0.1,0.1,0.1,0.1c0,0,0,0,0,0.1c0,0,0,0.1,0,0.1l0,0
		l0,0c-0.5,0.7-1,0.8-1.3,0.8c-0.1,0-0.1,0-0.2,0C45.2,15.6,44.8,14.8,44.8,14.3z M51.7,18.4L51.7,18.4L51.7,18.4
		c0-0.6,0.4-1.3,1-1.3c0.1,0,0.1,0,0.2,0c0.2,0,0.6,0.1,0.9,0.5c0,0,0.1,0.1,0.1,0.1c0,0.1,0,0.1-0.1,0.1c0,0-0.1,0.1-0.1,0.1
		c0,0,0,0-0.1,0c0,0,0,0.1,0,0.1c0,0.1,0.1,0.3,0.1,0.4c0,0.2,0,0.3-0.1,0.5c0,0,0,0.1,0,0.1c0.1,0,0.1-0.1,0.2-0.2s0.1-0.1,0.2-0.2
		l0,0l0,0c0,0,0.1-0.1,0.1-0.1c0,0,0,0,0,0c0,0,0.1,0,0.1,0c0,0,0,0,0,0c0,0,0.1,0.1,0.1,0.1c0,0,0,0,0,0.1c0,0,0,0.1,0,0.1
		c0,0,0,0,0,0c-0.5,0.6-0.9,0.8-1.3,0.8c-0.1,0-0.1,0-0.2,0C52.1,19.7,51.7,19,51.7,18.4z M50.6,16.8c-0.5,0.7-1,0.8-1.3,0.8
		c-0.1,0-0.1,0-0.2,0c-0.5,0-1-0.7-1-1.3c0-0.2,0.1-0.4,0.2-0.7c0.1-0.1,0.1-0.2,0.2-0.3c0,0,0,0,0,0c0.2-0.2,0.3-0.3,0.5-0.3
		c0.1,0,0.1,0,0.2,0c0.2,0,0.6,0.1,0.9,0.5c0,0,0.1,0.1,0.1,0.1c0,0.1,0,0.1-0.1,0.1c0,0-0.1,0.1-0.1,0.1c0,0,0,0-0.1,0
		C50,16,50,16.2,50,16.3l0,0l0,0c0,0.2,0,0.3-0.1,0.5c0,0,0,0.1,0,0.1c0.1-0.1,0.2-0.2,0.4-0.4c0,0,0.1-0.1,0.1-0.1c0,0,0,0,0,0
		c0,0,0.1,0,0.1,0l0,0c0,0,0,0,0,0C50.6,16.5,50.6,16.6,50.6,16.8C50.6,16.7,50.6,16.8,50.6,16.8z M37.9,18.4c0-0.6,0.4-1.3,1-1.3
		c0.1,0,0.1,0,0.2,0c0.2,0,0.6,0.1,0.9,0.5c0,0,0.1,0.1,0.1,0.1s0,0.1-0.1,0.1c0,0-0.1,0.1-0.1,0.1c0,0,0,0-0.1,0
		c0.1,0.2,0.1,0.3,0.1,0.5l0,0l0,0c0,0.1,0,0.2-0.1,0.4c0,0.1,0,0.1-0.1,0.2c0.1,0,0.1-0.1,0.2-0.2s0.1-0.1,0.2-0.2l0,0l0,0
		c0,0,0.1-0.1,0.1-0.1c0,0,0,0,0,0c0,0,0.1,0,0.1,0c0,0,0,0,0,0c0,0,0.1,0.1,0.1,0.1c0,0,0,0,0,0.1c0,0,0,0.1,0,0.1c0,0,0,0,0,0
		c-0.5,0.6-0.9,0.8-1.3,0.8c-0.1,0-0.1,0-0.2,0C38.3,19.7,37.9,19,37.9,18.4L37.9,18.4L37.9,18.4z M44,16.8c-0.5,0.7-1,0.8-1.3,0.8
		c-0.1,0-0.1,0-0.2,0c-0.5,0-1-0.7-1-1.3l0,0l0,0c0-0.6,0.4-1.3,1-1.3c0.1,0,0.1,0,0.2,0c0.2,0,0.6,0.1,0.9,0.5l0,0l0,0
		c0,0,0,0,0,0.1c0,0,0,0,0,0.1c0,0.1,0,0.1-0.1,0.1c0,0-0.1,0.1-0.1,0.1c0,0,0,0-0.1,0c0,0,0,0.1,0,0.1c0,0.1,0.1,0.2,0.1,0.3
		c0,0.1,0,0.3-0.1,0.4c0,0.1,0,0.1-0.1,0.2c0.1-0.1,0.2-0.2,0.3-0.4c0,0,0.1-0.1,0.1-0.1c0,0,0,0,0,0c0,0,0.1,0,0.1,0c0,0,0,0,0,0
		c0,0,0.1,0.1,0.1,0.1C44,16.7,44,16.7,44,16.8z M34.9,19.2c0.1,0,0.1,0,0.2,0c0.2,0,0.6,0.1,0.9,0.5c0,0,0.1,0.1,0.1,0.1
		c0,0,0,0.1-0.1,0.1c0,0,0,0,0,0l0,0l0,0c0,0-0.1,0.1-0.1,0.1c0,0,0,0-0.1,0c0.1,0.2,0.1,0.3,0.1,0.5l0,0l0,0c0,0.2,0,0.4-0.1,0.6
		c0.1-0.1,0.2-0.2,0.4-0.4c0,0,0.1-0.1,0.1-0.1c0,0,0,0,0,0c0,0,0.1,0,0.1,0c0,0,0.1,0.1,0.1,0.1c0,0.1,0,0.1,0,0.1
		c-0.5,0.7-1,0.8-1.3,0.8c-0.1,0-0.1,0-0.2,0c-0.3,0-0.6-0.3-0.8-0.6C34,20.9,34,20.7,34,20.5C34,19.9,34.4,19.2,34.9,19.2z
		 M39.8,27.1c0,0,0,0.1,0,0.1c-0.1,0.2-0.2,0.3-0.4,0.4C39,27.9,38.7,28,38.5,28c-0.1,0-0.1,0-0.2,0c-0.4,0-0.7-0.4-0.9-0.8
		c0-0.1-0.1-0.3-0.1-0.4c0-0.6,0.4-1.3,1-1.3c0.1,0,0.1,0,0.2,0c0.2,0,0.6,0.1,0.9,0.5c0,0,0.1,0.1,0.1,0.1c0,0.1,0,0.1-0.1,0.1
		c0,0-0.1,0.1-0.1,0.1c0,0,0,0-0.1,0c0.1,0.2,0.1,0.3,0.1,0.5c0,0.2,0,0.3-0.1,0.5c0,0,0,0.1,0,0.1c0.1-0.1,0.2-0.2,0.4-0.4
		c0,0,0.1-0.1,0.1-0.1c0,0,0,0,0,0c0,0,0.1,0,0.1,0c0,0,0,0,0,0C39.8,26.9,39.8,27,39.8,27.1C39.8,27,39.8,27.1,39.8,27.1z M40.1,23
		c-0.5,0.7-1,0.8-1.3,0.8c-0.1,0-0.1,0-0.2,0c-0.5,0-1-0.7-1-1.3c0-0.2,0.1-0.4,0.2-0.7c0.2-0.3,0.5-0.6,0.8-0.6c0.1,0,0.1,0,0.2,0
		c0.1,0,0.1,0,0.2,0c0,0,0.1,0,0.1,0c0.2,0.1,0.4,0.2,0.7,0.4c0.1,0.1,0.1,0.1,0,0.2c0,0,0,0,0,0.1c0,0-0.1,0.1-0.1,0.1
		c0,0,0,0-0.1,0c0,0.1,0.1,0.3,0.1,0.4c0,0,0,0.1,0,0.1l0,0l0,0c0,0.2,0,0.4-0.1,0.6c0.1-0.1,0.2-0.2,0.3-0.4c0,0,0.1-0.1,0.1-0.1
		c0,0,0,0,0,0c0,0,0.1,0,0.1,0c0,0,0,0,0,0c0,0,0.1,0.1,0.1,0.1C40.1,22.9,40.1,23,40.1,23z M43.4,29.2c-0.5,0.7-1,0.8-1.3,0.8
		c-0.1,0-0.1,0-0.2,0c-0.5,0-1-0.7-1-1.3l0,0l0,0c0-0.6,0.4-1.3,1-1.3c0.1,0,0.1,0,0.2,0c0.2,0,0.6,0.1,0.9,0.5l0,0l0,0c0,0,0,0,0,0
		c0,0,0,0.1,0,0.1c0,0,0,0.1,0,0.1c0,0,0,0,0,0.1l0,0l0,0c0,0-0.1,0.1-0.1,0.1c0,0,0,0-0.1,0c0.1,0.2,0.1,0.3,0.1,0.5
		c0,0.2,0,0.3-0.1,0.5c0,0,0,0.1,0,0.1c0.1-0.1,0.2-0.2,0.4-0.4c0,0,0.1-0.1,0.1-0.1c0,0,0,0,0,0c0,0,0.1,0,0.1,0c0,0,0,0,0,0
		c0,0,0.1,0.1,0.1,0.1C43.4,29.1,43.4,29.2,43.4,29.2z M43.7,25.1c-0.2,0.3-0.4,0.5-0.6,0.6c-0.3,0.2-0.5,0.2-0.7,0.2
		c-0.1,0-0.1,0-0.2,0c-0.5,0-1-0.7-1-1.3l0,0l0,0c0-0.6,0.4-1.3,1-1.3c0.1,0,0.1,0,0.2,0c0.2,0,0.6,0.1,0.9,0.5c0,0,0.1,0.1,0.1,0.1
		c0,0.1,0,0.1-0.1,0.1c0,0-0.1,0.1-0.1,0.1c0,0,0,0-0.1,0c0.1,0.2,0.1,0.3,0.1,0.5l0,0l0,0c0,0.2,0,0.3-0.1,0.5c0,0,0,0.1,0,0.1
		c0.1-0.1,0.2-0.2,0.4-0.4c0,0,0.1-0.1,0.1-0.1c0,0,0,0,0,0c0,0,0.1,0,0.1,0c0,0,0,0,0,0C43.7,24.9,43.7,25,43.7,25.1z M44,20.9
		c-0.5,0.7-1,0.8-1.3,0.8c-0.1,0-0.1,0-0.2,0c-0.5,0-1-0.7-1-1.3l0,0l0,0c0-0.6,0.4-1.3,1-1.3c0.1,0,0.1,0,0.2,0
		c0.2,0,0.6,0.1,0.9,0.5l0,0l0,0c0,0,0,0,0,0.1c0,0,0,0,0,0.1c0,0.1,0,0.1-0.1,0.1c0,0-0.1,0.1-0.1,0.1c0,0,0,0-0.1,0
		c0,0.1,0,0.1,0,0.2c0,0.1,0,0.2,0,0.3c0,0.1,0,0.3-0.1,0.4c0,0,0,0.1,0,0.1c0.1-0.1,0.2-0.2,0.3-0.4c0,0,0.1-0.1,0.1-0.1
		c0,0,0,0,0,0c0,0,0.1,0,0.1,0c0,0,0.1,0.1,0.1,0.1C44,20.8,44,20.9,44,20.9z M47.3,27.1c0,0,0,0.1,0,0.1c0,0,0,0,0,0
		C46.8,27.8,46.3,28,46,28c-0.1,0-0.1,0-0.2,0c-0.4,0-0.7-0.4-0.9-0.8c0-0.1-0.1-0.3-0.1-0.4c0-0.6,0.4-1.3,1-1.3c0.1,0,0.1,0,0.2,0
		c0.2,0,0.6,0.1,0.9,0.5c0,0,0.1,0.1,0.1,0.1c0,0.1,0,0.1-0.1,0.1c0,0-0.1,0.1-0.1,0.1c0,0,0,0-0.1,0c0.1,0.2,0.1,0.3,0.1,0.5
		c0,0.1,0,0.2-0.1,0.4c0,0.1,0,0.1-0.1,0.2c0.1,0,0.1-0.1,0.2-0.2c0.1-0.1,0.1-0.1,0.2-0.2c0,0,0,0,0,0c0,0,0.1-0.1,0.1-0.1
		c0,0,0,0,0,0c0,0,0.1,0,0.1,0c0,0,0,0,0,0C47.3,26.9,47.3,27,47.3,27.1C47.3,27,47.3,27.1,47.3,27.1z M47.3,22.9
		C47.3,23,47.3,23,47.3,22.9L47.3,22.9L47.3,22.9c-0.5,0.7-1,0.9-1.3,0.9c-0.1,0-0.1,0-0.2,0c-0.5,0-1-0.7-1-1.3l0,0l0,0
		c0-0.6,0.4-1.3,1-1.3c0.1,0,0.1,0,0.2,0c0.1,0,0.1,0,0.2,0c0.2,0,0.5,0.2,0.7,0.4c0,0,0.1,0.1,0.1,0.1c0,0.1,0,0.1-0.1,0.1
		c0,0-0.1,0.1-0.1,0.1c0,0,0,0-0.1,0c0.1,0.2,0.1,0.3,0.1,0.5l0,0l0,0c0,0.1,0,0.2-0.1,0.4c0,0.1,0,0.1-0.1,0.2c0,0,0,0,0,0
		c0.1-0.1,0.2-0.2,0.3-0.3c0,0,0.1-0.1,0.1-0.1c0,0,0,0,0,0c0,0,0.1,0,0.1,0c0,0,0,0,0,0C47.3,22.8,47.3,22.8,47.3,22.9
		C47.3,22.9,47.3,22.9,47.3,22.9z M47.3,18.8C47.3,18.8,47.3,18.8,47.3,18.8c0,0.1,0,0.1-0.1,0.1c-0.5,0.6-0.9,0.8-1.3,0.8
		c-0.1,0-0.1,0-0.2,0c-0.5,0-1-0.7-1-1.3l0,0l0,0c0,0,0-0.1,0-0.1c0.1-0.5,0.5-1.2,1-1.2c0.1,0,0.1,0,0.2,0c0.2,0,0.6,0.1,0.9,0.5
		c0,0,0.1,0.1,0.1,0.1c0,0.1,0,0.1-0.1,0.1c0,0-0.1,0.1-0.1,0.1c0,0,0,0-0.1,0c0,0.1,0,0.2,0.1,0.3c0,0,0,0.1,0,0.1l0,0l0,0
		c0,0.1,0,0.2-0.1,0.4c0,0.1,0,0.1-0.1,0.2c0.1,0,0.1-0.1,0.2-0.2s0.1-0.1,0.2-0.2l0,0l0,0c0,0,0.1-0.1,0.1-0.1c0,0,0,0,0,0
		c0,0,0.1,0,0.1,0c0,0,0,0,0,0C47.3,18.6,47.3,18.7,47.3,18.8C47.3,18.7,47.3,18.8,47.3,18.8z M49.1,19.2c0.1,0,0.1,0,0.2,0
		c0.2,0,0.6,0.1,0.9,0.5c0,0,0.1,0.1,0.1,0.1c0,0.1,0,0.1-0.1,0.1c0,0-0.1,0.1-0.1,0.1c0,0,0,0-0.1,0c0.1,0.2,0.1,0.3,0.1,0.5l0,0
		l0,0c0,0.1,0,0.3-0.1,0.4c0,0,0,0.1,0,0.1c0.1-0.1,0.2-0.2,0.4-0.4c0,0,0.1-0.1,0.1-0.1c0,0,0,0,0,0c0,0,0.1,0,0.1,0c0,0,0,0,0,0
		c0.1,0.1,0.1,0.2,0,0.2c0,0,0,0,0,0c-0.5,0.7-1,0.8-1.3,0.8c-0.1,0-0.1,0-0.2,0c-0.5,0-1-0.7-1-1.3c0-0.2,0.1-0.4,0.2-0.7
		c0,0,0,0,0-0.1c0-0.1,0.1-0.1,0.1-0.2C48.6,19.4,48.8,19.2,49.1,19.2z M48.4,24.6c0-0.6,0.4-1.3,1-1.3c0.1,0,0.1,0,0.2,0
		c0.2,0,0.6,0.1,0.9,0.5l0,0l0,0c0,0,0,0,0,0c0,0,0,0.1,0,0.1c0,0.1,0,0.1-0.1,0.1c0,0-0.1,0.1-0.1,0.1c0,0,0,0-0.1,0
		c0.1,0.2,0.1,0.3,0.1,0.5c0,0.1,0,0.3-0.1,0.4c0,0.1,0,0.1-0.1,0.2c0.1-0.1,0.2-0.2,0.3-0.4c0,0,0.1-0.1,0.1-0.1c0,0,0,0,0,0
		c0,0,0.1,0,0.1,0c0,0,0,0,0,0c0,0,0.1,0.1,0.1,0.1c0,0.1,0,0.1,0,0.1c-0.1,0.2-0.2,0.3-0.4,0.4c-0.4,0.3-0.7,0.4-0.9,0.4
		c-0.1,0-0.1,0-0.2,0C48.8,25.9,48.4,25.2,48.4,24.6L48.4,24.6L48.4,24.6z M51.2,29.2c-0.5,0.7-1,0.8-1.3,0.8c-0.1,0-0.1,0-0.2,0
		c-0.5,0-1-0.7-1-1.3l0,0l0,0c0-0.6,0.4-1.3,1-1.3c0.1,0,0.1,0,0.2,0c0.2,0,0.6,0.1,0.9,0.5c0,0,0.1,0.1,0.1,0.1
		c0,0.1,0,0.1-0.1,0.1c0,0-0.1,0.1-0.1,0.1c0,0,0,0-0.1,0c0.1,0.2,0.1,0.3,0.1,0.5l0,0l0,0c0,0.2,0,0.4-0.1,0.6
		c0.1-0.1,0.2-0.2,0.4-0.4c0,0,0.1-0.1,0.1-0.1c0,0,0,0,0,0c0,0,0.1,0,0.1,0c0,0,0,0,0,0c0,0,0.1,0.1,0.1,0.1S51.2,29.2,51.2,29.2z
		 M53,21.3c0.1,0,0.1,0,0.2,0c0.1,0,0.1,0,0.2,0c0.2,0,0.5,0.2,0.7,0.4c0,0,0.1,0.1,0.1,0.1c0,0,0,0,0,0.1c0,0,0,0.1,0,0.1l0,0l0,0
		c0,0-0.1,0.1-0.1,0.1c0,0,0,0-0.1,0c0.1,0.2,0.1,0.3,0.1,0.5l0,0l0,0c0,0.2,0,0.4-0.1,0.6c0.1-0.1,0.2-0.2,0.4-0.4
		c0,0,0.1-0.1,0.1-0.1c0,0,0,0,0,0c0,0,0.1,0,0.1,0c0,0,0,0,0,0l0,0l0,0c0,0,0,0,0,0.1c0,0,0,0,0,0.1c0,0.1,0,0.1,0,0.1
		c-0.5,0.7-1,0.8-1.3,0.8c-0.1,0-0.1,0-0.2,0c-0.3,0-0.6-0.2-0.8-0.5c0-0.1-0.1-0.1-0.1-0.2c0,0,0-0.1-0.1-0.1
		c0-0.1-0.1-0.3-0.1-0.4C52,22,52.4,21.3,53,21.3z M54.8,27.2C54.8,27.2,54.7,27.2,54.8,27.2c-0.5,0.7-1,0.8-1.3,0.8
		c-0.1,0-0.1,0-0.2,0c-0.4,0-0.7-0.4-0.9-0.8c0-0.1-0.1-0.3-0.1-0.4c0-0.6,0.4-1.3,1-1.3c0.1,0,0.1,0,0.2,0c0.2,0,0.6,0.1,0.9,0.5
		c0,0,0.1,0.1,0.1,0.1c0,0.1,0,0.1-0.1,0.1c0,0-0.1,0.1-0.1,0.1c0,0,0,0-0.1,0c0.1,0.2,0.1,0.3,0.1,0.5c0,0.1,0,0.2-0.1,0.4
		c0,0.1,0,0.1-0.1,0.2c0.1-0.1,0.2-0.2,0.3-0.3c0,0,0.1-0.1,0.1-0.1c0,0,0,0,0,0c0,0,0.1-0.1,0.1-0.1c0,0,0,0,0,0c0,0,0.1,0,0.1,0
		c0,0,0,0,0,0C54.8,27,54.8,27.1,54.8,27.2z M57.8,19.9c0,0.1,0,0.1-0.1,0.1c0,0-0.1,0.1-0.1,0.1c0,0,0,0-0.1,0
		c0.1,0.2,0.1,0.3,0.1,0.5l0,0l0,0c0,0.1,0,0.3-0.1,0.4c0,0,0,0.1,0,0.1c0.1-0.1,0.2-0.2,0.4-0.4c0,0,0.1-0.1,0.1-0.1c0,0,0,0,0,0
		c0,0,0.1,0,0.1,0h0c0,0,0.1,0.1,0.1,0.1c0,0.1,0,0.1,0,0.1c-0.5,0.7-1,0.8-1.3,0.8c-0.1,0-0.1,0-0.2,0c-0.5,0-1-0.7-1-1.3
		c0-0.2,0-0.4,0.1-0.5c0.2-0.4,0.5-0.8,0.9-0.8c0.1,0,0.1,0,0.2,0c0.2,0,0.6,0.1,0.9,0.5C57.7,19.8,57.8,19.8,57.8,19.9z M56,24.6
		c0-0.5,0.4-1.2,0.9-1.3c0,0,0,0,0.1,0c0.1,0,0.1,0,0.2,0c0.2,0,0.6,0.1,0.9,0.5c0,0,0.1,0.1,0.1,0.1c0,0.1,0,0.1-0.1,0.1
		c0,0-0.1,0.1-0.1,0.1c0,0,0,0-0.1,0c0.1,0.2,0.1,0.3,0.1,0.5c0,0.1,0,0.3-0.1,0.4c0,0.1,0,0.1-0.1,0.2c0,0,0,0,0,0
		c0.1-0.1,0.2-0.2,0.3-0.4c0,0,0.1-0.1,0.1-0.1c0,0,0,0,0,0c0,0,0.1,0,0.1,0c0,0,0,0,0,0c0,0,0.1,0.1,0.1,0.1c0,0,0,0,0,0
		c0,0,0,0.1,0,0.1c-0.1,0.2-0.2,0.3-0.4,0.4c-0.4,0.3-0.7,0.4-0.9,0.4c-0.1,0-0.1,0-0.2,0C56.4,25.9,56,25.2,56,24.6L56,24.6
		L56,24.6z M58.7,29.2c-0.1,0.1-0.1,0.1-0.2,0.2c0,0-0.1,0.1-0.1,0.1c-0.1,0.1-0.2,0.2-0.4,0.3c-0.3,0.2-0.5,0.2-0.7,0.2
		c-0.1,0-0.1,0-0.2,0c-0.5,0-1-0.7-1-1.3c0-0.3,0.1-0.5,0.2-0.8c0.2-0.3,0.4-0.5,0.7-0.5c0.1,0,0.1,0,0.2,0c0.2,0,0.6,0.1,0.9,0.5
		c0,0,0.1,0.1,0.1,0.1c0,0,0,0.1,0,0.1c0,0,0,0,0,0.1l0,0l0,0c0,0-0.1,0.1-0.1,0.1c0,0,0,0-0.1,0c0.1,0.2,0.1,0.3,0.1,0.5l0,0l0,0
		c0,0.2,0,0.4-0.1,0.6c0.1-0.1,0.2-0.2,0.4-0.4c0,0,0,0,0,0c0,0,0.1,0,0.1,0c0,0,0,0,0,0c0,0,0.1,0,0.1,0c0,0,0,0,0,0
		C58.8,29,58.8,29.1,58.7,29.2C58.7,29.2,58.7,29.2,58.7,29.2z M57.5,15.7c0,0.1,0,0.1-0.1,0.1c0,0-0.1,0.1-0.1,0.1c0,0,0,0-0.1,0
		c0,0.1,0,0.1,0,0.2c0,0.1,0.1,0.2,0.1,0.3c0,0.2,0,0.4-0.1,0.6c0.1,0,0.1-0.1,0.2-0.2c0,0,0,0,0,0c0.1-0.1,0.1-0.1,0.2-0.2
		c0,0,0.1-0.1,0.1-0.1c0,0,0,0,0,0c0,0,0.1,0,0.1,0c0,0,0,0,0,0c0,0,0.1,0.1,0.1,0.1c0,0.1,0,0.1,0,0.1c-0.5,0.7-1,0.8-1.3,0.8
		c-0.1,0-0.1,0-0.2,0c-0.5,0-1-0.7-1-1.3l0,0l0,0c0-0.6,0.4-1.3,1-1.3c0.1,0,0.1,0,0.2,0c0.2,0,0.6,0.1,0.9,0.5
		C57.4,15.6,57.5,15.6,57.5,15.7z M55.7,10.9c0.1,0,0.1,0,0.2,0c0.2,0,0.6,0.1,0.9,0.5l0,0l0,0c0,0,0,0.1,0,0.1c0,0,0,0,0,0.1
		c0,0,0,0,0,0.1c0,0,0,0.1,0,0.1l0,0l0,0c0,0-0.1,0.1-0.1,0.1c0,0,0,0-0.1,0c0.1,0.2,0.1,0.3,0.1,0.5l0,0l0,0c0,0.2,0,0.4-0.1,0.6
		c0.1-0.1,0.2-0.2,0.4-0.4c0,0,0.1-0.1,0.1-0.1c0,0,0,0,0,0c0,0,0.1,0,0.1,0c0,0,0,0,0,0l0,0l0,0c0,0,0,0,0,0.1c0,0,0,0,0,0.1
		c0,0.1,0,0.1,0,0.1c-0.5,0.7-1,0.8-1.3,0.8c-0.1,0-0.1,0-0.2,0c-0.3,0-0.6-0.3-0.8-0.6c-0.1-0.2-0.2-0.4-0.2-0.7
		C54.7,11.6,55.1,10.9,55.7,10.9z M52.4,8.8c0.1,0,0.1,0,0.2,0c0.2,0,0.6,0.1,0.9,0.5c0,0,0.1,0.1,0.1,0.1c0,0,0,0.1,0,0.1
		c0,0,0,0,0,0.1l0,0l0,0c0,0-0.1,0.1-0.1,0.1c0,0,0,0-0.1,0c0.1,0.2,0.1,0.3,0.1,0.5l0,0l0,0c0,0.2,0,0.4-0.1,0.6
		c0.1-0.1,0.2-0.2,0.4-0.4c0,0,0.1-0.1,0.1-0.1c0,0,0,0,0,0c0,0,0.1,0,0.1,0c0,0,0.1,0.1,0.1,0.1c0,0.1,0,0.1,0,0.1
		c-0.5,0.7-1,0.8-1.3,0.8c-0.1,0-0.1,0-0.2,0c-0.5,0-1-0.7-1-1.3c0-0.1,0-0.3,0.1-0.4C51.6,9.3,51.9,8.8,52.4,8.8z M51.5,13.9
		c0.1-0.5,0.5-0.9,0.9-0.9c0.1,0,0.1,0,0.2,0c0.2,0,0.6,0.1,0.9,0.5c0,0,0.1,0.1,0.1,0.1c0,0,0,0.1-0.1,0.1c0,0,0,0,0,0l0,0l0,0
		c0,0-0.1,0.1-0.1,0.1c0,0,0,0-0.1,0c0.1,0.2,0.1,0.3,0.1,0.5l0,0l0,0c0,0.2,0,0.4-0.1,0.6c0.1-0.1,0.2-0.2,0.4-0.4
		c0,0,0.1-0.1,0.1-0.1c0,0,0,0,0,0c0,0,0.1,0,0.1,0c0,0,0,0,0,0c0,0,0.1,0.1,0.1,0.1c0,0.1,0,0.1,0,0.1c-0.5,0.7-1,0.8-1.3,0.8
		c-0.1,0-0.1,0-0.2,0c-0.5,0-1-0.7-1-1.3C51.4,14.2,51.4,14,51.5,13.9z M48.5,11.1c0.2-0.2,0.3-0.3,0.5-0.3c0.1,0,0.1,0,0.2,0
		c0.2,0,0.6,0.1,0.9,0.5c0,0,0.1,0.1,0.1,0.1s0,0.1-0.1,0.1c0,0-0.1,0.1-0.1,0.1c0,0,0,0-0.1,0C50,11.9,50,12,50,12.2l0,0l0,0
		c0,0.1,0,0.2-0.1,0.4c0,0.1,0,0.1-0.1,0.2c0.1-0.1,0.2-0.2,0.4-0.4c0,0,0.1-0.1,0.1-0.1c0,0,0,0,0,0c0,0,0.1,0,0.1,0c0,0,0,0,0,0
		c0.1,0.1,0.1,0.2,0,0.2c0,0,0,0,0,0c-0.5,0.7-1,0.8-1.3,0.8c-0.1,0-0.1,0-0.2,0c-0.5,0-1-0.7-1-1.3c0-0.2,0.1-0.4,0.2-0.7
		C48.3,11.4,48.4,11.3,48.5,11.1C48.5,11.2,48.5,11.2,48.5,11.1z M46.9,9.3c0,0,0.1,0.1,0.1,0.1c0,0.1,0,0.1-0.1,0.1
		c0,0-0.1,0.1-0.1,0.1c0,0,0,0-0.1,0c0.1,0.2,0.1,0.3,0.1,0.5l0,0l0,0c0,0.1,0,0.2-0.1,0.4c0,0.1,0,0.1-0.1,0.2
		c0.1,0,0.1-0.1,0.2-0.2s0.1-0.1,0.2-0.2l0,0l0,0c0,0,0.1-0.1,0.1-0.1c0,0,0,0,0,0c0,0,0.1,0,0.1,0c0,0,0,0,0,0c0,0,0.1,0.1,0.1,0.1
		c0,0,0,0,0,0c0,0,0,0.1,0,0.1c0,0,0,0,0,0c-0.5,0.6-0.9,0.8-1.3,0.8c-0.1,0-0.1,0-0.2,0c-0.5,0-1-0.7-1-1.3l0,0l0,0
		c0-0.6,0.4-1.3,1-1.3c0.1,0,0.1,0,0.2,0C46.2,8.9,46.5,9,46.9,9.3z M41.5,12.2c0-0.6,0.4-1.3,1-1.3c0.1,0,0.1,0,0.2,0
		c0.2,0,0.6,0.1,0.9,0.5l0,0l0,0c0,0,0,0.1,0,0.1c0,0,0,0,0,0.1c0,0.1,0,0.1-0.1,0.1c0,0-0.1,0.1-0.1,0.1c0,0,0,0-0.1,0
		c0,0,0,0.1,0,0.1c0,0.1,0.1,0.2,0.1,0.3c0,0.2,0,0.3-0.1,0.5c0,0,0,0.1,0,0.1c0.1-0.1,0.2-0.2,0.3-0.4c0,0,0.1-0.1,0.1-0.1
		c0,0,0,0,0,0c0,0,0.1,0,0.1,0c0,0,0,0,0,0c0,0,0.1,0.1,0.1,0.1c0,0.1,0,0.1,0,0.1c-0.5,0.7-1,0.8-1.3,0.8c-0.1,0-0.1,0-0.2,0
		C41.9,13.5,41.5,12.7,41.5,12.2L41.5,12.2L41.5,12.2z M40.3,9.3c0.1,0.1,0.1,0.2,0,0.3l0,0l0,0c0,0-0.1,0.1-0.1,0.1c0,0,0,0-0.1,0
		c0.1,0.2,0.1,0.3,0.1,0.5l0,0l0,0c0,0.2,0,0.4-0.1,0.6c0.1-0.1,0.2-0.2,0.4-0.4c0,0,0.1-0.1,0.1-0.1c0,0,0,0,0,0c0,0,0.1,0,0.1,0
		c0,0,0.1,0.1,0.1,0.1c0,0.1,0,0.1,0,0.1c-0.5,0.7-1,0.8-1.3,0.8c-0.1,0-0.1,0-0.2,0c-0.3,0-0.6-0.3-0.8-0.6
		c-0.1-0.2-0.2-0.5-0.2-0.7c0-0.6,0.4-1.3,1-1.3c0.1,0,0.1,0,0.2,0C39.6,8.9,39.9,9,40.3,9.3z"/>
</g>
</svg>
